<svg width="55" height="55" viewBox="0 0 55 55" fill="none" xmlns="http://www.w3.org/2000/svg">
<path d="M10.3333 10.3333C14.9187 5.74793 21.0153 3.22266 27.5 3.22266C32.459 3.22266 37.2535 4.73118 41.2856 7.51599L38.1728 7.83524L38.5016 11.041L46.8805 10.1817L46.0211 1.80275L42.8152 2.13157L43.0939 4.84838C38.5308 1.70339 33.1083 0 27.5 0C20.1545 0 13.2487 2.86054 8.0546 8.0546C2.86054 13.2487 0 20.1545 0 27.5C0 32.9991 1.6182 38.3072 4.67962 42.85L7.35206 41.0491C7.315 40.994 7.27901 40.9385 7.24238 40.8832C4.61248 36.9111 3.22266 32.2884 3.22266 27.5C3.22266 21.0154 5.74793 14.9187 10.3333 10.3333Z" fill="#09090A"/>
<path d="M50.3205 12.15L47.6479 13.9509C47.685 14.0059 47.721 14.0616 47.7576 14.1168C50.3874 18.0889 51.7773 22.7116 51.7773 27.5C51.7773 33.9847 49.2521 40.0812 44.6667 44.6667C40.0814 49.2521 33.9848 51.7773 27.5 51.7773C22.541 51.7773 17.7465 50.2688 13.7144 47.484L16.8272 47.1648L16.4984 43.959L8.11948 44.8183L8.97886 53.1972L12.1848 52.8684L11.9061 50.1516C16.4693 53.2966 21.8918 55 27.5 55C34.8455 55 41.7513 52.1395 46.9455 46.9454C52.1396 41.7513 55 34.8455 55 27.5C55 22.0009 53.3819 16.6928 50.3205 12.15Z" fill="#09090A"/>
<path d="M13.4259 30.8821L15.512 28.954C17.0924 27.5 17.3928 26.5201 17.3928 25.4454C17.3928 23.3909 15.6385 22.0792 13.0941 22.0792C10.9131 22.0792 9.3485 22.9958 8.51093 24.3866L10.8341 25.6825C11.2766 24.9714 12.0036 24.6079 12.8096 24.6079C13.7578 24.6079 14.232 25.0346 14.232 25.7458C14.232 26.2042 14.1056 26.7099 13.2205 27.5317L9.07983 31.4037V33.3634H17.693V30.8822L13.4259 30.8821Z" fill="#09090A"/>
<path d="M27.6345 31.2456H29.278V28.7644H27.6345V26.8837H24.6791V28.7644H22.435L26.939 22.3005H23.6992L18.7367 29.2068V31.2456H24.5842V33.3633H27.6345V31.2456Z" fill="#09090A"/>
<path d="M32.1232 34.9437L37.3384 20.0563H34.6676L29.4523 34.9437H32.1232Z" fill="#09090A"/>
<path d="M39.9937 26.4885V24.7817H42.9016L39.1719 33.3633H42.5856L46.4892 24.2602V22.3005H37.3228V26.4885H39.9937Z" fill="#09090A"/>
</svg>
