<svg width="52" height="55" viewBox="0 0 52 55" fill="none" xmlns="http://www.w3.org/2000/svg">
<path d="M14.9874 22.3907H8.96385C8.11329 22.3907 7.49645 22.8918 7.49645 23.582V34.7837C7.49645 35.4849 8.15651 35.9746 9.1019 35.9746C10.0322 35.9746 10.7074 35.4736 10.7074 34.7837V30.5376H12.8646C13.635 30.5376 14.0383 29.8603 14.0383 29.1915C14.0383 28.3913 13.5448 27.8105 12.8646 27.8105H10.7074V25.3255H14.9874C15.6786 25.3255 16.1615 24.715 16.1615 23.8409C16.1615 22.987 15.6786 22.3907 14.9874 22.3907Z" fill="#09090A"/>
<path d="M23.4037 30.1847C24.3415 29.737 25.464 28.7312 25.464 26.4816C25.464 23.8435 23.8397 22.3907 20.8902 22.3907H17.4724C16.7947 22.3907 16.2643 22.906 16.2643 23.5644V34.7837C16.2643 35.4736 16.9395 35.9746 17.8694 35.9746C18.8143 35.9746 19.4744 35.4849 19.4744 34.7837V30.7621H20.1458L22.4596 35.2587C22.7109 35.761 23.1628 36.061 23.6689 36.061C24.6009 36.061 25.5505 35.2247 25.5505 34.404C25.5505 34.3091 25.5341 34.0762 25.3902 33.8689L23.4037 30.1847ZM22.2531 26.6885C22.2531 27.6574 21.8708 28.035 20.8902 28.035H19.4748V25.3255H20.8902C21.8708 25.3255 22.2531 25.7074 22.2531 26.6885Z" fill="#09090A"/>
<path d="M33.7133 25.3255C34.4035 25.3255 34.9046 24.7012 34.9046 23.8409C34.9046 23.0005 34.4035 22.3907 33.7133 22.3907H27.5688C26.7187 22.3907 26.1014 22.8918 26.1014 23.582V34.7837C26.1014 35.474 26.7187 35.9746 27.5688 35.9746H33.7133C34.4035 35.9746 34.9046 35.3649 34.9046 34.5248C34.9046 33.6646 34.4035 33.0402 33.7133 33.0402H29.3123V30.538H31.4524C32.2261 30.538 32.6437 29.844 32.6437 29.1915C32.6437 28.4043 32.1313 27.8105 31.4524 27.8105H29.3123V25.3255H33.7133Z" fill="#09090A"/>
<path d="M42.8609 25.3255C43.5512 25.3255 44.0522 24.7012 44.0522 23.8409C44.0522 23.0005 43.5512 22.3907 42.8609 22.3907H36.716C35.8659 22.3907 35.2491 22.8918 35.2491 23.582V34.7837C35.2491 35.474 35.8659 35.9746 36.716 35.9746H42.8609C43.5512 35.9746 44.0522 35.3649 44.0522 34.5248C44.0522 33.6646 43.5512 33.0402 42.8609 33.0402H38.4595V30.538H40.6C41.3734 30.538 41.7909 29.844 41.7909 29.1915C41.7909 28.4043 41.2789 27.8105 40.6 27.8105H38.4595V25.3255H42.8609Z" fill="#09090A"/>
<path d="M45.622 0H5.92583C2.65827 0 0 2.65827 0 5.92625V45.622C0 48.8895 2.65827 51.5482 5.92583 51.5482H7.78431C8.95168 53.6069 11.1618 55 13.6929 55C16.2236 55 18.4338 53.6069 19.6011 51.5482H31.9467C33.114 53.6069 35.3246 55 37.8557 55C40.3864 55 42.5965 53.6069 43.7639 51.5482H45.622C48.8895 51.5482 51.5482 48.8895 51.5482 45.622V5.92625C51.5482 2.65827 48.8895 0 45.622 0ZM20.3094 3.22266H31.0663V11.1039C31.0663 12.5944 29.8536 13.8071 28.3631 13.8071H23.0126C21.5221 13.8071 20.3094 12.5944 20.3094 11.1039V3.22266ZM13.6929 51.7773C11.7262 51.7773 10.1266 50.1773 10.1266 48.211C10.1266 46.2443 11.7262 44.6447 13.6929 44.6447C15.6593 44.6447 17.2588 46.2443 17.2588 48.211C17.2588 50.1773 15.6593 51.7773 13.6929 51.7773ZM37.8557 51.7773C35.889 51.7773 34.289 50.1773 34.289 48.211C34.289 46.2443 35.889 44.6447 37.8557 44.6447C39.822 44.6447 41.422 46.2443 41.422 48.211C41.422 50.1773 39.822 51.7773 37.8557 51.7773ZM48.3256 45.622C48.3256 47.1129 47.1129 48.3256 45.622 48.3256H44.6418C44.6422 48.2874 44.6447 48.2492 44.6447 48.211C44.6447 44.4672 41.5991 41.422 37.8557 41.422C34.1119 41.422 31.0663 44.4676 31.0663 48.211C31.0663 48.2492 31.0688 48.2874 31.0693 48.3256H20.479C20.4794 48.2874 20.4815 48.2492 20.4815 48.211C20.4815 44.4672 17.4363 41.422 13.6929 41.422C9.94911 41.422 6.90395 44.4676 6.90395 48.211C6.90395 48.2492 6.90605 48.2874 6.90689 48.3256H5.92583C4.43535 48.3256 3.22266 47.1129 3.22266 45.622V5.92625C3.22266 4.43535 4.43535 3.22266 5.92583 3.22266H17.0868V11.1039C17.0868 14.3715 19.7451 17.0297 23.0126 17.0297H28.3631C31.6307 17.0297 34.289 14.3715 34.289 11.1039V3.22266H45.622C47.1129 3.22266 48.3256 4.43535 48.3256 5.92625V45.622Z" fill="#09090A"/>
</svg>
