<svg width="17" height="16" viewBox="0 0 17 16" fill="none" xmlns="http://www.w3.org/2000/svg">
<path d="M9.12552 0.38319L11.3741 4.87294L16.402 5.59291C16.9741 5.6748 17.2026 6.36771 16.7886 6.76542L13.1503 10.2602L14.0092 15.1949C14.1069 15.7564 13.5088 16.1846 12.9971 15.9195L8.49997 13.5897L4.00289 15.9195C3.49117 16.1846 2.89305 15.7564 2.9908 15.1949L3.84966 10.2602L0.21141 6.76539C-0.202598 6.36768 0.0258714 5.67484 0.598026 5.59287L5.62592 4.87291L7.87446 0.38319C8.13036 -0.12773 8.86962 -0.12773 9.12552 0.38319Z" fill="#796F51"/>
<path d="M11.3741 4.87294L9.12552 0.38319C8.99759 0.127746 8.7488 8.18902e-06 8.50001 8.18902e-06V8.50026L11.3741 4.87294Z" fill="#796F51"/>
<path d="M13.1503 10.2602L16.7886 6.76542C16.9928 6.56923 17.0404 6.30122 16.9678 6.07016L8.50001 8.50026L13.1503 10.2602Z" fill="#796F51"/>
<path d="M13.7338 15.8656L8.50001 8.50026L8.49997 13.5897L12.9971 15.9195C13.2539 16.0526 13.5323 16.0109 13.7338 15.8656Z" fill="#796F51"/>
<path d="M8.50001 8.50026L3.84966 10.2602L2.9908 15.1949C2.94209 15.4746 3.0662 15.7212 3.26619 15.8656L8.50001 8.50026Z" fill="#796F51"/>
<path d="M0.0321468 6.07019L8.50001 8.50026L5.62592 4.87291L0.598026 5.59287C0.30813 5.63436 0.106721 5.83284 0.0321468 6.07019Z" fill="#796F51"/>
<path d="M3.84966 10.2602L0.21141 6.76539C0.00717811 6.5692 -0.0404682 6.30126 0.0321468 6.07019L8.50001 8.50026L3.84966 10.2602Z" fill="#796F51"/>
</svg>
