<svg width="57" height="55" viewBox="0 0 57 55" fill="none" xmlns="http://www.w3.org/2000/svg">
<path d="M53.733 19.2311C52.9838 16.9113 53.3032 13.4291 51.356 10.7404C49.3935 8.03059 45.9803 7.26036 44.053 5.85077C42.1459 4.45603 40.3717 1.42094 37.1639 0.37417C34.0465 -0.643108 30.8587 0.737325 28.3871 0.737325C25.9157 0.737325 22.7282 -0.64344 19.6103 0.374059C16.403 1.42061 14.6273 4.45636 12.7215 5.85044C10.7963 7.25837 7.38053 8.0307 5.41838 10.7401C3.47287 13.4266 3.78901 16.9167 3.04119 19.2309C2.32951 21.4335 0 24.0769 0 27.5002C0 30.9256 2.32685 33.5589 3.04119 35.7694C3.79034 38.0892 3.47099 41.5714 5.41816 44.26C7.38053 46.97 10.7936 47.7401 12.7212 49.1498C14.6279 50.5443 16.4024 53.5796 19.6103 54.6263C22.7255 55.6429 25.9183 54.2631 28.3871 54.2631C30.8524 54.2631 34.0526 55.6415 37.1639 54.6264C40.3713 53.5799 42.1458 50.5448 44.0526 49.15C45.9779 47.7421 49.3936 46.9698 51.3558 44.2604C53.3014 41.5738 52.985 38.084 53.733 35.7695C54.4446 33.5669 56.7741 30.9234 56.7741 27.5002C56.7741 24.075 54.4478 21.4426 53.733 19.2311ZM49.5125 34.4056C48.6393 37.1085 48.868 40.1334 47.7636 41.6585C46.6443 43.2039 43.7037 43.9098 41.4346 45.5696C39.1904 47.2108 37.6174 49.8126 35.788 50.4095C34.0573 50.9743 31.2368 49.8274 28.3872 49.8274C25.5168 49.8274 22.7253 50.9768 20.9863 50.4095C19.1571 49.8126 17.5863 47.2126 15.3397 45.5695C13.084 43.9198 10.1266 43.1994 9.01057 41.6583C7.90968 40.1383 8.12979 37.0924 7.26188 34.4057C6.41115 31.7734 4.43548 29.4941 4.43548 27.5002C4.43548 25.5044 6.40938 23.233 7.26166 20.5949C8.13489 17.8921 7.90613 14.867 9.01057 13.342C10.1292 11.7975 13.072 11.0893 15.3397 9.43087C17.591 7.78431 19.1541 5.18877 20.986 4.59098C22.7153 4.02679 25.545 5.17303 28.387 5.17303C31.2626 5.17303 34.0471 4.02291 35.7879 4.59098C37.6169 5.18778 39.1889 7.78874 41.4346 9.43098C43.6899 11.0806 46.6475 11.8011 47.7636 13.3421C48.8647 14.8624 48.6434 17.9052 49.5123 20.5946V20.5947C50.363 23.2271 52.3387 25.5064 52.3387 27.5002C52.3387 29.4961 50.3648 31.7675 49.5125 34.4056ZM38.6045 20.3818C39.4707 21.248 39.4707 22.6521 38.6045 23.5182L27.5041 34.6186C26.6379 35.4848 25.2337 35.4847 24.3676 34.6186L18.1697 28.4207C17.3036 27.5546 17.3035 26.1504 18.1696 25.2844C19.0357 24.4184 20.4401 24.4182 21.3059 25.2844L25.9358 29.9141L35.468 20.382C36.3341 19.5158 37.7384 19.5158 38.6045 20.3818Z" fill="#09090A"/>
</svg>
