<svg width="101" height="17" viewBox="0 0 101 17" fill="none" xmlns="http://www.w3.org/2000/svg">
<path d="M12.8755 1.037L15.1241 5.52675L20.152 6.24672C20.7241 6.32861 20.9526 7.02152 20.5386 7.41923L16.9003 10.914L17.7592 15.8487C17.8569 16.4102 17.2588 16.8384 16.7471 16.5733L12.25 14.2435L7.75289 16.5733C7.24117 16.8384 6.64305 16.4102 6.7408 15.8487L7.59966 10.914L3.96141 7.4192C3.5474 7.02149 3.77587 6.32865 4.34803 6.24668L9.37592 5.52671L11.6245 1.037C11.8804 0.526079 12.6196 0.526079 12.8755 1.037Z" fill="#FF9500"/>
<path d="M15.1241 5.52675L12.8755 1.037C12.7476 0.781555 12.4988 0.653817 12.25 0.653817V9.15407L15.1241 5.52675Z" fill="#FF9500"/>
<path d="M16.9003 10.914L20.5386 7.41923C20.7428 7.22304 20.7904 6.95503 20.7178 6.72397L12.25 9.15407L16.9003 10.914Z" fill="#FF9500"/>
<path d="M17.4838 16.5194L12.25 9.15407L12.25 14.2435L16.7471 16.5733C17.0039 16.7064 17.2823 16.6647 17.4838 16.5194Z" fill="#FF9500"/>
<path d="M12.25 9.15407L7.59966 10.914L6.7408 15.8487C6.69209 16.1284 6.8162 16.375 7.01619 16.5194L12.25 9.15407Z" fill="#FF9500"/>
<path d="M3.78215 6.724L12.25 9.15407L9.37592 5.52671L4.34803 6.24668C4.05813 6.28817 3.85672 6.48665 3.78215 6.724Z" fill="#FF9500"/>
<path d="M7.59966 10.914L3.96141 7.4192C3.75718 7.22301 3.70953 6.95507 3.78215 6.724L12.25 9.15407L7.59966 10.914Z" fill="#FF9500"/>
<path d="M31.8755 1.037L34.1241 5.52675L39.152 6.24672C39.7241 6.32861 39.9526 7.02152 39.5386 7.41923L35.9003 10.914L36.7592 15.8487C36.8569 16.4102 36.2588 16.8384 35.7471 16.5733L31.25 14.2435L26.7529 16.5733C26.2412 16.8384 25.643 16.4102 25.7408 15.8487L26.5997 10.914L22.9614 7.4192C22.5474 7.02149 22.7759 6.32865 23.348 6.24668L28.3759 5.52671L30.6245 1.037C30.8804 0.526079 31.6196 0.526079 31.8755 1.037Z" fill="#FF9500"/>
<path d="M34.1241 5.52675L31.8755 1.037C31.7476 0.781555 31.4988 0.653817 31.25 0.653817V9.15407L34.1241 5.52675Z" fill="#FF9500"/>
<path d="M35.9003 10.914L39.5386 7.41923C39.7428 7.22304 39.7904 6.95503 39.7178 6.72397L31.25 9.15407L35.9003 10.914Z" fill="#FF9500"/>
<path d="M36.4838 16.5194L31.25 9.15407L31.25 14.2435L35.7471 16.5733C36.0039 16.7064 36.2823 16.6647 36.4838 16.5194Z" fill="#FF9500"/>
<path d="M31.25 9.15407L26.5997 10.914L25.7408 15.8487C25.6921 16.1284 25.8162 16.375 26.0162 16.5194L31.25 9.15407Z" fill="#FF9500"/>
<path d="M22.7821 6.724L31.25 9.15407L28.3759 5.52671L23.348 6.24668C23.0581 6.28817 22.8567 6.48665 22.7821 6.724Z" fill="#FF9500"/>
<path d="M26.5997 10.914L22.9614 7.4192C22.7572 7.22301 22.7095 6.95507 22.7821 6.724L31.25 9.15407L26.5997 10.914Z" fill="#FF9500"/>
<path d="M50.8755 1.037L53.1241 5.52675L58.152 6.24672C58.7241 6.32861 58.9526 7.02152 58.5386 7.41923L54.9003 10.914L55.7592 15.8487C55.8569 16.4102 55.2588 16.8384 54.7471 16.5733L50.25 14.2435L45.7529 16.5733C45.2412 16.8384 44.643 16.4102 44.7408 15.8487L45.5997 10.914L41.9614 7.4192C41.5474 7.02149 41.7759 6.32865 42.348 6.24668L47.3759 5.52671L49.6245 1.037C49.8804 0.526079 50.6196 0.526079 50.8755 1.037Z" fill="#FF9500"/>
<path d="M53.1241 5.52675L50.8755 1.037C50.7476 0.781555 50.4988 0.653817 50.25 0.653817V9.15407L53.1241 5.52675Z" fill="#FF9500"/>
<path d="M54.9003 10.914L58.5386 7.41923C58.7428 7.22304 58.7904 6.95503 58.7178 6.72397L50.25 9.15407L54.9003 10.914Z" fill="#FF9500"/>
<path d="M55.4838 16.5194L50.25 9.15407L50.25 14.2435L54.7471 16.5733C55.0039 16.7064 55.2823 16.6647 55.4838 16.5194Z" fill="#FF9500"/>
<path d="M50.25 9.15407L45.5997 10.914L44.7408 15.8487C44.6921 16.1284 44.8162 16.375 45.0162 16.5194L50.25 9.15407Z" fill="#FF9500"/>
<path d="M41.7821 6.724L50.25 9.15407L47.3759 5.52671L42.348 6.24668C42.0581 6.28817 41.8567 6.48665 41.7821 6.724Z" fill="#FF9500"/>
<path d="M45.5997 10.914L41.9614 7.4192C41.7572 7.22301 41.7095 6.95507 41.7821 6.724L50.25 9.15407L45.5997 10.914Z" fill="#FF9500"/>
<path d="M69.8755 1.037L72.1241 5.52675L77.152 6.24672C77.7241 6.32861 77.9526 7.02152 77.5386 7.41923L73.9003 10.914L74.7592 15.8487C74.8569 16.4102 74.2588 16.8384 73.7471 16.5733L69.25 14.2435L64.7529 16.5733C64.2412 16.8384 63.643 16.4102 63.7408 15.8487L64.5997 10.914L60.9614 7.4192C60.5474 7.02149 60.7759 6.32865 61.348 6.24668L66.3759 5.52671L68.6245 1.037C68.8804 0.526079 69.6196 0.526079 69.8755 1.037Z" fill="#FF9500"/>
<path d="M72.1241 5.52675L69.8755 1.037C69.7476 0.781555 69.4988 0.653817 69.25 0.653817V9.15407L72.1241 5.52675Z" fill="#FF9500"/>
<path d="M73.9003 10.914L77.5386 7.41923C77.7428 7.22304 77.7904 6.95503 77.7178 6.72397L69.25 9.15407L73.9003 10.914Z" fill="#FF9500"/>
<path d="M74.4838 16.5194L69.25 9.15407L69.25 14.2435L73.7471 16.5733C74.0039 16.7064 74.2823 16.6647 74.4838 16.5194Z" fill="#FF9500"/>
<path d="M69.25 9.15407L64.5997 10.914L63.7408 15.8487C63.6921 16.1284 63.8162 16.375 64.0162 16.5194L69.25 9.15407Z" fill="#FF9500"/>
<path d="M60.7821 6.724L69.25 9.15407L66.3759 5.52671L61.348 6.24668C61.0581 6.28817 60.8567 6.48665 60.7821 6.724Z" fill="#FF9500"/>
<path d="M64.5997 10.914L60.9614 7.4192C60.7572 7.22301 60.7095 6.95507 60.7821 6.724L69.25 9.15407L64.5997 10.914Z" fill="#FF9500"/>
<path d="M88.8755 1.037L91.1241 5.52675L96.152 6.24672C96.7241 6.32861 96.9526 7.02152 96.5386 7.41923L92.9003 10.914L93.7592 15.8487C93.8569 16.4102 93.2588 16.8384 92.7471 16.5733L88.25 14.2435L83.7529 16.5733C83.2412 16.8384 82.643 16.4102 82.7408 15.8487L83.5997 10.914L79.9614 7.4192C79.5474 7.02149 79.7759 6.32865 80.348 6.24668L85.3759 5.52671L87.6245 1.037C87.8804 0.526079 88.6196 0.526079 88.8755 1.037Z" fill="#FF9500"/>
<path d="M91.1241 5.52675L88.8755 1.037C88.7476 0.781555 88.4988 0.653817 88.25 0.653817V9.15407L91.1241 5.52675Z" fill="#FF9500"/>
<path d="M92.9003 10.914L96.5386 7.41923C96.7428 7.22304 96.7904 6.95503 96.7178 6.72397L88.25 9.15407L92.9003 10.914Z" fill="#FF9500"/>
<path d="M93.4838 16.5194L88.25 9.15407L88.25 14.2435L92.7471 16.5733C93.0039 16.7064 93.2823 16.6647 93.4838 16.5194Z" fill="#FF9500"/>
<path d="M88.25 9.15407L83.5997 10.914L82.7408 15.8487C82.6921 16.1284 82.8162 16.375 83.0162 16.5194L88.25 9.15407Z" fill="#FF9500"/>
<path d="M79.7821 6.724L88.25 9.15407L85.3759 5.52671L80.348 6.24668C80.0581 6.28817 79.8567 6.48665 79.7821 6.724Z" fill="#FF9500"/>
<path d="M83.5997 10.914L79.9614 7.4192C79.7572 7.22301 79.7095 6.95507 79.7821 6.724L88.25 9.15407L83.5997 10.914Z" fill="#FF9500"/>
</svg>
