<svg width="52" height="40" viewBox="0 0 52 40" fill="none" xmlns="http://www.w3.org/2000/svg">
<path d="M37.1268 39.0318C52.0018 41.9858 58.0988 20.3318 42.2198 15.7918C41.7686 15.6944 41.2973 15.7793 40.9086 16.0281C40.5198 16.2769 40.2453 16.6693 40.1448 17.1198C40.051 17.5605 40.133 18.0204 40.3735 18.4015C40.6139 18.7826 40.9936 19.0547 41.4318 19.1598C43.6068 19.6155 45.5142 20.9109 46.7397 22.7647C47.9652 24.6185 48.4099 26.8809 47.9771 29.0606C47.5443 31.2403 46.269 33.1612 44.4283 34.4062C42.5875 35.6511 40.3299 36.1196 38.1458 35.7098C38.0358 35.6898 37.9264 35.6675 37.8178 35.6428C36.7333 35.4738 35.695 35.0838 34.7675 34.497C33.8399 33.9101 33.0428 33.139 32.4256 32.2314C31.8083 31.3238 31.3841 30.2991 31.1793 29.2207C30.9745 28.1424 30.9933 27.0335 31.2348 25.9628C32.9038 17.6389 36.2002 9.72655 40.9348 2.67979C41.0608 2.49028 41.1478 2.27762 41.1909 2.05417C41.234 1.83072 41.2322 1.60094 41.1857 1.37818C41.1391 1.15542 41.0488 0.944136 40.9199 0.756603C40.791 0.569069 40.6261 0.409031 40.4348 0.285792C40.0476 0.0331742 39.5764 -0.0568336 39.1234 0.0352415C38.6703 0.127317 38.2717 0.394071 38.0138 0.777792C33.0219 8.21461 29.5487 16.5645 27.7938 25.3478C26.4778 33.2098 31.7098 37.9478 37.1258 39.0308L37.1268 39.0318ZM10.4588 39.0318C25.3338 41.9868 31.4308 20.3318 15.5518 15.7918C15.1006 15.6941 14.6292 15.7787 14.2402 16.0273C13.8513 16.276 13.5765 16.6683 13.4758 17.1188C13.3817 17.5598 13.4638 18.0201 13.7044 18.4014C13.9451 18.7827 14.3252 19.0549 14.7638 19.1598C16.9434 19.6111 18.8564 20.9054 20.086 22.7608C21.3156 24.6163 21.7622 26.8824 21.3285 29.0656C20.8947 31.2488 19.6158 33.1722 17.7703 34.4167C15.9249 35.6612 13.6624 36.126 11.4758 35.7098C11.3664 35.6898 11.2578 35.6678 11.1498 35.6438C10.0656 35.4748 9.02765 35.0848 8.10032 34.4982C7.173 33.9116 6.37605 33.1407 5.75885 32.2335C5.14166 31.3262 4.71739 30.3018 4.51233 29.2239C4.30728 28.1459 4.32581 27.0373 4.56677 25.9668C6.23634 17.6431 9.53269 9.7308 14.2668 2.68379C14.3928 2.49428 14.4798 2.28162 14.5229 2.05817C14.566 1.83472 14.5642 1.60494 14.5177 1.38218C14.4711 1.15942 14.3808 0.948136 14.2519 0.760603C14.123 0.573069 13.9581 0.413031 13.7668 0.289792C13.3794 0.0372705 12.9082 -0.0525793 12.4551 0.0396852C12.0021 0.13195 11.6035 0.398908 11.3458 0.782792C6.35538 8.21874 2.88293 16.5672 1.12777 25.3488C-0.191227 33.2108 5.04277 37.9528 10.4588 39.0318Z" fill="#DDDDDD"/>
</svg>
