<svg width="51" height="50" viewBox="0 0 51 50" fill="none" xmlns="http://www.w3.org/2000/svg">
<path d="M25.4129 6.35352C25.9561 6.35352 26.3964 5.91318 26.3964 5.37002V0.983496C26.3964 0.440332 25.9561 0 25.4129 0C24.8697 0 24.4294 0.440332 24.4294 0.983496V5.37002C24.4295 5.91318 24.8698 6.35352 25.4129 6.35352Z" fill="#09090A"/>
<path d="M49.4532 33.7876L47.7158 32.0551C47.0978 31.4378 46.274 31.0978 45.3963 31.0978C44.8351 31.0978 44.2963 31.2374 43.8188 31.499L40.5448 28.2289L40.7043 28.0696C42.0325 26.7388 42.032 24.5762 40.7042 23.2498C40.2297 22.7744 39.6376 22.4574 38.9922 22.324C39.0811 22.0173 39.1278 21.696 39.1278 21.3672C39.1278 20.4536 38.7729 19.597 38.1306 18.9572C37.656 18.4818 37.064 18.1648 36.4186 18.0314C36.5074 17.7247 36.5542 17.4035 36.5542 17.0746C36.5542 16.1609 36.1993 15.3044 35.5559 14.6637C35.0699 14.1783 34.4726 13.8711 33.8453 13.7403C34.1809 12.5834 33.8941 11.2817 32.984 10.37C32.2264 9.61563 31.1983 9.29141 30.2076 9.39648L23.7198 8.16846C22.7304 7.98076 21.4947 7.85664 20.7147 8.56807C20.6655 8.61299 20.6153 8.66465 20.5659 8.72217C19.3565 8.28135 17.946 8.54385 16.9775 9.51123C16.3351 10.1529 15.9812 11.0092 15.9812 11.9223C15.9812 12.2512 16.0277 12.5724 16.1165 12.8792C15.4718 13.0125 14.8805 13.3291 14.4075 13.8029C13.7638 14.444 13.4088 15.2993 13.4081 16.2113C13.4078 16.541 13.4546 16.8633 13.5438 17.1709C12.8988 17.3039 12.3071 17.6199 11.8327 18.0938C11.189 18.7368 10.8345 19.5936 10.8345 20.5062C10.8345 21.2052 11.0432 21.8711 11.4299 22.4336C10.9416 22.5991 10.4943 22.8746 10.1198 23.2487C8.79072 24.5762 8.79024 26.7389 10.1207 28.0717L10.2796 28.2299L7.00518 31.4983C5.78828 30.9254 4.28896 31.14 3.28477 32.143L1.54629 33.8766C0.92793 34.4941 0.5875 35.318 0.587402 36.1962C0.587402 37.0745 0.92793 37.8984 1.54629 38.5161L3.71592 40.6831C4.1002 41.067 4.72295 41.0666 5.10674 40.6823C5.49062 40.298 5.49023 39.6753 5.10596 39.2915L2.93633 37.1245C2.69004 36.8785 2.55439 36.5488 2.55439 36.1963C2.55439 35.8438 2.69004 35.5143 2.93574 35.2688L4.67432 33.5352C5.10869 33.1013 5.77353 33.0366 6.27842 33.3385C6.31396 33.3919 6.35508 33.4427 6.40215 33.4898C6.48643 33.5743 6.58262 33.6391 6.68477 33.6864L16.6548 43.6418C16.7021 43.745 16.7672 43.8422 16.8521 43.9271C16.9347 44.0099 17.0289 44.0738 17.1289 44.1209C17.3397 44.3593 17.4562 44.6638 17.4562 44.9886C17.4562 45.3411 17.3206 45.6707 17.0743 45.9167L15.3375 47.6515C14.8243 48.1624 13.9896 48.1623 13.4779 47.653L11.3083 45.4832C10.9242 45.0991 10.3016 45.0991 9.91748 45.4832C9.5334 45.8673 9.5334 46.4899 9.91748 46.874L12.0887 49.0454C12.7277 49.6818 13.567 49.9999 14.4066 49.9999C15.2465 49.9999 16.0867 49.6813 16.7266 49.0443L18.4645 47.3085C19.0828 46.6908 19.4233 45.867 19.4233 44.9886C19.4233 44.3617 19.249 43.7631 18.9249 43.2469L22.6101 39.5662C22.614 39.5622 22.6179 39.5582 22.6219 39.5542C23.0438 39.118 24.2189 39.1996 25.3554 39.2785C26.1628 39.3347 27.063 39.3971 27.9425 39.2957L31.978 43.3265C31.7166 43.8031 31.577 44.3412 31.577 44.9016C31.577 45.779 31.9176 46.6023 32.5359 47.22L34.2739 48.9559C34.8919 49.5731 35.7156 49.9132 36.5934 49.9132C37.471 49.9132 38.2947 49.5732 38.9128 48.9559L49.4539 38.4275C50.0723 37.81 50.4128 36.9861 50.4128 36.1078C50.4127 35.2296 50.0722 34.4058 49.4532 33.7876ZM23.3536 10.1011L27.6199 10.9086L25.0663 13.4612C24.6713 13.2714 24.1299 12.9173 23.5359 12.3491C22.7229 11.5714 22.1414 10.6734 22.0885 10.1134C22.0884 10.1131 22.0885 10.1137 22.0885 10.1134C22.0885 10.1133 22.0883 10.1123 22.0883 10.1122C22.0845 10.072 22.0835 10.0398 22.084 10.0153C22.2126 9.98408 22.5542 9.94941 23.3536 10.1011ZM18.3675 10.9029C18.8657 10.4052 19.6397 10.3478 20.2027 10.729C20.5218 12.0667 21.6629 13.2791 22.1763 13.7703C22.5567 14.1344 23.7775 15.2259 25.0098 15.5259C25.1765 15.7648 25.2672 16.0497 25.2672 16.3503C25.2672 16.7375 25.1183 17.0995 24.8469 17.3706C24.5763 17.6417 24.2137 17.7909 23.8258 17.7909C23.4378 17.7909 23.0752 17.6417 22.8033 17.3693L18.3674 12.9414C18.097 12.6714 17.948 12.3094 17.948 11.9223C17.9481 11.5351 18.0971 11.173 18.3675 10.9029ZM15.7976 15.1946C16.0682 14.9236 16.4304 14.7743 16.8177 14.7743C17.2055 14.7743 17.5688 14.9239 17.8412 15.196L21.4127 18.7604C21.9751 19.3236 21.9751 20.2402 21.4146 20.8016C21.1426 21.0726 20.7787 21.2218 20.3901 21.2218C20.0016 21.2218 19.6377 21.0726 19.3668 20.8027L16.6572 18.0938C16.653 18.0896 16.6484 18.0856 16.6441 18.0813L15.7965 17.2341C15.5245 16.9624 15.3748 16.5997 15.3751 16.2128C15.3755 15.8271 15.5247 15.4663 15.7976 15.1946ZM13.2228 19.4854C13.4936 19.215 13.8565 19.0661 14.245 19.0661C14.6303 19.0661 14.9901 19.2129 15.2598 19.4786L17.9775 22.1951C18.2485 22.465 18.3979 22.8267 18.3979 23.2134C18.3979 23.6 18.2485 23.9616 17.9765 24.2326C17.7058 24.5029 17.3432 24.6519 16.9554 24.6519C16.567 24.6519 16.2032 24.5025 15.9321 24.2326L14.9469 23.2485C14.9467 23.2482 14.9471 23.2487 14.9469 23.2485L13.2229 21.5266C12.9512 21.2552 12.8016 20.8927 12.8016 20.506C12.8016 20.1193 12.9512 19.7567 13.2228 19.4854ZM11.5099 24.6403C11.7818 24.3687 12.1453 24.219 12.5333 24.219C12.9212 24.219 13.2846 24.3686 13.5564 24.64L14.5431 25.6255C14.8142 25.8954 14.9634 26.257 14.9634 26.6437C14.9634 27.0305 14.8141 27.392 14.541 27.6641C14.2704 27.9351 13.9078 28.0844 13.5199 28.0844C13.1319 28.0844 12.7693 27.9352 12.4968 27.6621L12.3732 27.5391C12.3716 27.5374 12.3703 27.5356 12.3688 27.5341C12.3669 27.5323 12.3649 27.5308 12.3631 27.529L11.5108 26.6801C10.9484 26.1165 10.9479 25.2016 11.5099 24.6403ZM31.5522 35.8179C31.1684 35.4335 30.5456 35.4332 30.1614 35.817L29.2864 36.6909C28.455 37.5224 26.9484 37.4177 25.4915 37.3166C23.9094 37.2066 22.2733 37.0932 21.2146 38.1801L17.5921 41.7982L8.5332 32.7526L11.7391 29.5525C12.2689 29.8773 12.8804 30.0515 13.5201 30.0515C14.4341 30.0515 15.2911 29.6972 15.9313 29.0559C16.5757 28.4141 16.9307 27.5575 16.9307 26.6438C16.9307 26.6354 16.9301 26.627 16.9301 26.6185C16.9386 26.6186 16.9471 26.619 16.9556 26.619C17.8683 26.619 18.7246 26.2658 19.3656 25.6256C20.0101 24.9838 20.365 24.1271 20.365 23.2136C20.365 23.2051 20.3645 23.1967 20.3645 23.1882C20.373 23.1882 20.3816 23.1888 20.3903 23.1888C21.3027 23.1888 22.1596 22.8359 22.8049 22.1933C23.4748 21.5223 23.8062 20.6389 23.7998 19.7573C23.8086 19.7574 23.8174 19.7579 23.8262 19.7579C24.7401 19.7578 25.5971 19.4036 26.2382 18.7613C26.8807 18.1196 27.2346 17.2634 27.2346 16.3503C27.2346 15.7117 27.0609 15.1013 26.7372 14.5725L29.5471 11.7638C29.7564 11.5553 30.0146 11.4244 30.2853 11.3704C30.3146 11.3673 30.3435 11.3626 30.3721 11.3569C30.8062 11.2971 31.2622 11.4311 31.5942 11.7617C32.1566 12.3251 32.1566 13.2417 31.5963 13.803L30.7405 14.6553C30.7377 14.6581 30.7347 14.6606 30.7318 14.6635L29.7462 15.6475C29.3618 16.0312 29.3614 16.654 29.7453 17.0383C30.1293 17.4227 30.752 17.4229 31.1361 17.0392L31.9953 16.1812C31.9951 16.1813 31.9955 16.181 31.9953 16.1812L32.1258 16.0512C32.6897 15.4924 33.6034 15.4936 34.1668 16.0562C34.4379 16.3261 34.5872 16.6877 34.5872 17.0744C34.5872 17.461 34.4379 17.8227 34.1646 18.0947L33.304 18.9571C33.3039 18.9572 33.3041 18.9569 33.304 18.9571L32.3182 19.9391C31.9333 20.3224 31.932 20.9451 32.3153 21.3299C32.6986 21.7147 33.3213 21.7159 33.7062 21.3327L34.6962 20.3467C34.9668 20.0756 35.3294 19.9264 35.7173 19.9264C36.1053 19.9264 36.468 20.0756 36.7405 20.3486C37.0116 20.6187 37.1608 20.9803 37.1608 21.367C37.1608 21.7536 37.0116 22.1152 36.739 22.3867L35.0231 24.1032C34.6392 24.4874 34.6393 25.1101 35.0233 25.494C35.2154 25.686 35.467 25.7819 35.7187 25.7819C35.9704 25.7819 36.2222 25.6858 36.4142 25.4937L37.2551 24.6525C37.2599 24.6479 37.265 24.6439 37.2698 24.6392C37.5404 24.3681 37.903 24.2188 38.2909 24.2188C38.6789 24.2188 39.0415 24.3681 39.3131 24.6401C39.8749 25.2014 39.8744 26.1164 39.3131 26.6787L38.4581 27.5327C38.4578 27.533 38.4574 27.5333 38.4571 27.5336C38.4568 27.5339 38.4565 27.5343 38.4562 27.5346L37.0992 28.8899C36.7149 29.2738 36.7146 29.8966 37.0983 30.2809C37.2904 30.4731 37.5424 30.5693 37.7942 30.5693C38.0457 30.5693 38.2973 30.4734 38.4893 30.2817L39.153 29.6187L42.3344 32.7964L33.2763 41.8435L30.0308 38.6019C30.257 38.4563 30.4735 38.2853 30.6768 38.082L31.5513 37.2086C31.9357 36.8249 31.9361 36.2021 31.5522 35.8179ZM48.0638 37.0358L37.5227 47.5642C37.2761 47.8104 36.946 47.9461 36.5933 47.9461C36.2405 47.9461 35.9104 47.8105 35.6638 47.5641L33.9258 45.8282C33.6795 45.5823 33.5438 45.2532 33.5438 44.9016C33.5438 44.55 33.6795 44.2209 33.9258 43.9749L44.4669 33.4466C44.7136 33.2002 45.0436 33.0645 45.3964 33.0645C45.7491 33.0645 46.0792 33.2002 46.3265 33.4472L48.0639 35.1797C48.3102 35.4257 48.4458 35.7552 48.4458 36.1077C48.4457 36.4604 48.3101 36.7899 48.0638 37.0358Z" fill="#09090A"/>
<path d="M12.3534 5.52441C12.5454 5.71602 12.7968 5.81172 13.0481 5.81172C13.3001 5.81172 13.5521 5.71543 13.7442 5.52295C14.1279 5.13848 14.1273 4.51582 13.7429 4.13213L10.1591 0.555469C9.77471 0.171777 9.15195 0.172266 8.76826 0.556836C8.38457 0.941309 8.38516 1.56396 8.76963 1.94766L12.3534 5.52441Z" fill="#09090A"/>
<path d="M37.7776 5.81172C38.0291 5.81172 38.2807 5.71582 38.4727 5.52412L42.0537 1.94736C42.438 1.56357 42.4384 0.94082 42.0545 0.556543C41.6707 0.172266 41.048 0.171875 40.6637 0.555762L37.0826 4.13252C36.6983 4.51631 36.6979 5.13906 37.0818 5.52334C37.2739 5.71562 37.5258 5.81172 37.7776 5.81172Z" fill="#09090A"/>
<path d="M6.63477 42.3051C6.254 42.6924 6.25928 43.3151 6.64668 43.6959L6.64951 43.6986C6.84063 43.8865 7.08877 43.9801 7.33682 43.9801C7.59141 43.9801 7.846 43.8815 8.03887 43.6854C8.41963 43.298 8.41289 42.6739 8.02559 42.2932C7.63838 41.9124 7.01572 41.9178 6.63477 42.3051Z" fill="#09090A"/>
<path d="M33.9577 34.4011C34.1073 34.4011 34.2591 34.367 34.4016 34.2952C34.8865 34.0506 35.0813 33.4592 34.8368 32.9742C34.5922 32.4893 34.0007 32.2943 33.5158 32.539L33.5103 32.5417C33.0254 32.7863 32.8333 33.3764 33.0778 33.8613C33.2505 34.2039 33.5977 34.4011 33.9577 34.4011Z" fill="#09090A"/>
</svg>
