<svg width="21" height="20" viewBox="0 0 21 20" fill="none" xmlns="http://www.w3.org/2000/svg">
<path d="M9.65225 0C14.6769 0 18.7649 4.08789 18.7649 9.11258C18.7649 11.2861 17.9996 13.284 16.7247 14.852L20.5397 18.6669L19.2065 20L15.3916 16.185C13.8237 17.4598 11.8258 18.2252 9.65229 18.2252C4.62756 18.2252 0.539673 14.1373 0.539673 9.11258C0.539673 4.08789 4.62756 0 9.65225 0ZM9.65225 16.3398C13.6373 16.3398 16.8795 13.0977 16.8795 9.11258C16.8795 5.1275 13.6374 1.88535 9.65225 1.88535C5.66713 1.88535 2.42503 5.1275 2.42503 9.11258C2.42503 13.0977 5.66717 16.3398 9.65225 16.3398Z" fill="#09090A"/>
</svg>
