<svg width="27" height="27" viewBox="0 0 27 27" fill="none" xmlns="http://www.w3.org/2000/svg">
<g clip-path="url(#clip0_12277_1098)">
<path d="M20.0425 0.456787H7.04281C3.46821 0.456787 0.542969 3.38203 0.542969 6.95663V19.9569C0.542969 23.5306 3.46821 26.4568 7.04281 26.4568H20.0425C23.6171 26.4568 26.5423 23.5306 26.5423 19.9569V6.95663C26.5423 3.38203 23.6171 0.456787 20.0425 0.456787ZM24.3756 19.9569C24.3756 22.3456 22.4325 24.2901 20.0425 24.2901H7.04281C4.6538 24.2901 2.70969 22.3456 2.70969 19.9569V6.95663C2.70969 4.5673 4.6538 2.62351 7.04281 2.62351H20.0425C22.4325 2.62351 24.3756 4.5673 24.3756 6.95663V19.9569Z" fill="white"/>
<path d="M20.5859 8.03972C21.4833 8.03972 22.2109 7.3122 22.2109 6.41476C22.2109 5.51731 21.4833 4.78979 20.5859 4.78979C19.6885 4.78979 18.9609 5.51731 18.9609 6.41476C18.9609 7.3122 19.6885 8.03972 20.5859 8.03972Z" fill="white"/>
<path d="M13.5428 6.95654C9.95228 6.95654 7.04297 9.86617 7.04297 13.4564C7.04297 17.0453 9.95228 19.9569 13.5428 19.9569C17.1323 19.9569 20.0427 17.0453 20.0427 13.4564C20.0427 9.86617 17.1323 6.95654 13.5428 6.95654ZM13.5428 17.7901C11.1499 17.7901 9.20969 15.85 9.20969 13.4564C9.20969 11.0628 11.1499 9.12326 13.5428 9.12326C15.9358 9.12326 17.8759 11.0628 17.8759 13.4564C17.8759 15.85 15.9358 17.7901 13.5428 17.7901Z" fill="white"/>
</g>
<defs>
<clipPath id="clip0_12277_1098">
<rect width="26" height="26" fill="white" transform="translate(0.542969 0.456787)"/>
</clipPath>
</defs>
</svg>
