<svg width="27" height="27" viewBox="0 0 27 27" fill="none" xmlns="http://www.w3.org/2000/svg">
<g clip-path="url(#clip0_12277_1112)">
<path d="M13.8961 0.456787C6.76889 0.45787 2.98047 5.02412 2.98047 10.0031C2.98047 12.3117 4.27072 15.1923 6.33664 16.1055C6.92597 16.371 6.84797 16.047 7.35497 14.1079C7.39505 13.9465 7.37447 13.8067 7.24447 13.6561C4.2913 10.2404 6.66814 3.2182 13.4747 3.2182C23.3255 3.2182 21.4849 16.8487 15.1886 16.8487C13.5657 16.8487 12.3567 15.5747 12.7391 13.9985C13.2028 12.121 14.1106 10.1028 14.1106 8.7497C14.1106 5.33937 9.0298 5.84529 9.0298 10.3639C9.0298 11.7603 9.5238 12.7028 9.5238 12.7028C9.5238 12.7028 7.88905 19.3068 7.58572 20.5407C7.07222 22.6294 7.65505 26.0105 7.70597 26.3019C7.73739 26.4622 7.91722 26.5131 8.01797 26.381C8.17939 26.1697 10.1554 23.3509 10.709 21.3131C10.9105 20.571 11.7371 17.5594 11.7371 17.5594C12.282 18.543 13.8528 19.3664 15.5266 19.3664C20.5056 19.3664 24.1044 14.9897 24.1044 9.55895C24.0871 4.35245 19.6313 0.456787 13.8961 0.456787Z" fill="white"/>
</g>
<defs>
<clipPath id="clip0_12277_1112">
<rect width="26" height="26" fill="white" transform="translate(0.542969 0.456787)"/>
</clipPath>
</defs>
</svg>
