<svg width="151" height="38" viewBox="0 0 151 38" fill="none" xmlns="http://www.w3.org/2000/svg">
<g clip-path="url(#clip0_150_138)">
<path d="M44.1202 27.047H54.8878V23.6305H47.9472V10.7618H44.1202V27.047Z" fill="#7A7A7A"/>
<path d="M61.2673 24.7693C59.7321 24.7693 58.9321 23.3572 58.9321 21.239C58.9321 19.1208 59.7321 17.6859 61.2673 17.6859C62.8024 17.6859 63.624 19.1208 63.624 21.239C63.624 23.3572 62.8024 24.7693 61.2673 24.7693ZM61.2889 27.4114C64.8565 27.4114 67.1916 24.7465 67.1916 21.239C67.1916 17.7314 64.8565 15.0666 61.2889 15.0666C57.7429 15.0666 55.3646 17.7314 55.3646 21.239C55.3646 24.7465 57.7429 27.4114 61.2889 27.4114Z" fill="#7A7A7A"/>
<path d="M73.3668 31.0784C75.01 31.0784 76.4587 30.6912 77.4316 29.7801C78.3181 28.9374 78.9019 27.6619 78.9019 25.9081V15.3854H75.5289V16.6381H75.4857C74.837 15.6588 73.8424 15.0438 72.3722 15.0438C69.6262 15.0438 67.7235 17.4581 67.7235 20.8746C67.7235 24.4505 70.037 26.4092 72.5235 26.4092C73.8641 26.4092 74.7073 25.8398 75.3559 25.0654H75.4424V26.227C75.4424 27.6392 74.8154 28.4591 73.3235 28.4591C72.1559 28.4591 71.5722 27.9352 71.3776 27.3203H67.9613C68.3073 29.7574 70.3181 31.0784 73.3668 31.0784ZM73.3451 23.6533C72.0262 23.6533 71.1614 22.5145 71.1614 20.7607C71.1614 18.9841 72.0262 17.8453 73.3451 17.8453C74.8154 17.8453 75.5938 19.1663 75.5938 20.7379C75.5938 22.3778 74.8803 23.6533 73.3451 23.6533Z" fill="#7A7A7A"/>
<path d="M85.8374 24.7693C84.3023 24.7693 83.5023 23.3572 83.5023 21.239C83.5023 19.1208 84.3023 17.6859 85.8374 17.6859C87.3726 17.6859 88.1942 19.1208 88.1942 21.239C88.1942 23.3572 87.3726 24.7693 85.8374 24.7693ZM85.859 27.4114C89.4266 27.4114 91.762 24.7465 91.762 21.239C91.762 17.7314 89.4266 15.0666 85.859 15.0666C82.3131 15.0666 79.9347 17.7314 79.9347 21.239C79.9347 24.7465 82.3131 27.4114 85.859 27.4114Z" fill="#7A7A7A"/>
<path d="M92.7909 27.047H96.3152V15.3854H92.7909V27.047ZM92.7909 13.7683H96.3152V10.7618H92.7909V13.7683Z" fill="#7A7A7A"/>
<path d="M97.844 30.8962H101.368V25.8398H101.412C102.104 26.8192 103.12 27.4114 104.547 27.4114C107.444 27.4114 109.368 24.9971 109.368 21.2162C109.368 17.7086 107.574 15.0438 104.633 15.0438C103.12 15.0438 102.039 15.7499 101.282 16.7976H101.217V15.3854H97.844V30.8962ZM103.639 24.5416C102.125 24.5416 101.26 23.2433 101.26 21.3529C101.26 19.4624 102.039 18.0275 103.574 18.0275C105.087 18.0275 105.801 19.3485 105.801 21.3529C105.801 23.3344 104.979 24.5416 103.639 24.5416Z" fill="#7A7A7A"/>
<path d="M115.107 27.4114C118.004 27.4114 120.145 26.0904 120.145 23.5394C120.145 20.5557 117.853 20.0318 115.907 19.6902C114.502 19.4169 113.248 19.303 113.248 18.483C113.248 17.7542 113.918 17.4125 114.783 17.4125C115.756 17.4125 116.426 17.7314 116.556 18.7791H119.799C119.626 16.4787 117.94 15.0438 114.804 15.0438C112.188 15.0438 110.026 16.3193 110.026 18.7791C110.026 21.5123 112.08 22.0589 114.004 22.4006C115.475 22.6739 116.815 22.7878 116.815 23.8355C116.815 24.5871 116.145 24.9971 115.086 24.9971C113.918 24.9971 113.183 24.4277 113.053 23.2661H109.723C109.831 25.8398 111.864 27.4114 115.107 27.4114Z" fill="#7A7A7A"/>
<path d="M124.931 27.3886C126.467 27.3886 127.44 26.7509 128.24 25.6121H128.304V27.047H131.677V15.3854H128.153V21.8995C128.153 23.2889 127.418 24.2455 126.207 24.2455C125.083 24.2455 124.542 23.5394 124.542 22.2639V15.3854H121.04V23.0383C121.04 25.6348 122.38 27.3886 124.931 27.3886Z" fill="#7A7A7A"/>
<path d="M133.211 27.047H136.735V20.5101C136.735 19.1208 137.384 18.1414 138.486 18.1414C139.546 18.1414 140.043 18.8702 140.043 20.1229V27.047H143.568V20.5101C143.568 19.1208 144.195 18.1414 145.319 18.1414C146.378 18.1414 146.876 18.8702 146.876 20.1229V27.047H150.4V19.4624C150.4 16.8431 149.146 15.0438 146.638 15.0438C145.211 15.0438 144.022 15.6815 143.157 17.0937H143.114C142.551 15.841 141.449 15.0438 140 15.0438C138.4 15.0438 137.341 15.841 136.649 17.0481H136.584V15.3854H133.211V27.047Z" fill="#7A7A7A"/>
<path fill-rule="evenodd" clip-rule="evenodd" d="M8.10521 3.41444C6.81632 4.36379 5.65082 5.48625 4.63906 6.74979C8.77358 6.34544 14.0263 7.00569 20.1247 10.2178C26.637 13.6477 31.881 13.7637 35.5305 13.0221C35.1994 11.9659 34.7824 10.9509 34.2886 9.98592C30.1109 10.4501 24.755 9.83569 18.5132 6.5482C14.5496 4.46055 11.0557 3.60058 8.10521 3.41444ZM31.8482 6.32676C28.549 2.44371 23.7545 0 18.4181 0C16.8509 0 15.3304 0.210783 13.8808 0.606878C15.8441 1.17117 17.9297 1.99672 20.1247 3.15289C24.6946 5.55984 28.6401 6.33484 31.8482 6.32676ZM36.3108 16.7293C31.9018 17.6465 25.8134 17.4581 18.5132 13.6131C11.6883 10.0184 6.25628 10.0636 2.59273 10.9213C2.40363 10.9655 2.21898 11.012 2.03879 11.0604C1.55914 12.1593 1.17627 13.3148 0.901559 14.5147C1.19497 14.4322 1.49816 14.3537 1.81098 14.2804C6.25551 13.24 12.5352 13.2852 20.1247 17.2826C26.9497 20.8773 32.3817 20.832 36.0453 19.9744C36.1708 19.9451 36.2945 19.9147 36.4161 19.8834C36.4295 19.5842 36.4361 19.2831 36.4361 18.9803C36.4361 18.2187 36.3936 17.4676 36.3108 16.7293ZM35.8278 23.8889C31.4616 24.693 25.5505 24.3844 18.5132 20.6779C11.6883 17.0832 6.25628 17.1285 2.59273 17.9861C1.77953 18.1764 1.04799 18.4083 0.402664 18.653C0.400905 18.7619 0.400024 18.871 0.400024 18.9803C0.400024 29.4629 8.46698 37.9607 18.4181 37.9607C26.7578 37.9607 33.7742 31.9922 35.8278 23.8889Z" fill="#7A7A7A"/>
</g>
<defs>
<clipPath id="clip0_150_138">
<rect width="150" height="37.9607" fill="white" transform="translate(0.400024)"/>
</clipPath>
</defs>
</svg>
