<svg width="151" height="38" viewBox="0 0 151 38" fill="none" xmlns="http://www.w3.org/2000/svg">
<g clip-path="url(#clip0_150_134)">
<path d="M43.9202 27.047H54.6878V23.6305H47.7472V10.7618H43.9202V27.047Z" fill="#7A7A7A"/>
<path d="M61.0673 24.7693C59.5321 24.7693 58.7321 23.3572 58.7321 21.239C58.7321 19.1208 59.5321 17.6859 61.0673 17.6859C62.6024 17.6859 63.424 19.1208 63.424 21.239C63.424 23.3572 62.6024 24.7693 61.0673 24.7693ZM61.0889 27.4114C64.6564 27.4114 66.9916 24.7465 66.9916 21.239C66.9916 17.7314 64.6564 15.0666 61.0889 15.0666C57.5429 15.0666 55.1645 17.7314 55.1645 21.239C55.1645 24.7465 57.5429 27.4114 61.0889 27.4114Z" fill="#7A7A7A"/>
<path d="M73.1667 31.0784C74.81 31.0784 76.2586 30.6912 77.2316 29.7801C78.1181 28.9374 78.7019 27.6619 78.7019 25.9081V15.3854H75.3289V16.6381H75.2857C74.637 15.6588 73.6424 15.0438 72.1722 15.0438C69.4262 15.0438 67.5235 17.4581 67.5235 20.8746C67.5235 24.4505 69.837 26.4092 72.3235 26.4092C73.664 26.4092 74.5073 25.8398 75.1559 25.0654H75.2424V26.227C75.2424 27.6392 74.6154 28.4591 73.1235 28.4591C71.9559 28.4591 71.3721 27.9352 71.1776 27.3203H67.7613C68.1073 29.7574 70.1181 31.0784 73.1667 31.0784ZM73.1451 23.6533C71.8262 23.6533 70.9613 22.5145 70.9613 20.7607C70.9613 18.9841 71.8262 17.8453 73.1451 17.8453C74.6154 17.8453 75.3938 19.1663 75.3938 20.7379C75.3938 22.3778 74.6803 23.6533 73.1451 23.6533Z" fill="#7A7A7A"/>
<path d="M85.6374 24.7693C84.1023 24.7693 83.3023 23.3572 83.3023 21.239C83.3023 19.1208 84.1023 17.6859 85.6374 17.6859C87.1725 17.6859 87.9942 19.1208 87.9942 21.239C87.9942 23.3572 87.1725 24.7693 85.6374 24.7693ZM85.659 27.4114C89.2266 27.4114 91.562 24.7465 91.562 21.239C91.562 17.7314 89.2266 15.0666 85.659 15.0666C82.1131 15.0666 79.7347 17.7314 79.7347 21.239C79.7347 24.7465 82.1131 27.4114 85.659 27.4114Z" fill="#7A7A7A"/>
<path d="M92.5909 27.047H96.1152V15.3854H92.5909V27.047ZM92.5909 13.7683H96.1152V10.7618H92.5909V13.7683Z" fill="#7A7A7A"/>
<path d="M97.644 30.8962H101.168V25.8398H101.212C101.903 26.8192 102.92 27.4114 104.347 27.4114C107.244 27.4114 109.168 24.9971 109.168 21.2162C109.168 17.7086 107.374 15.0438 104.433 15.0438C102.92 15.0438 101.839 15.7499 101.082 16.7976H101.017V15.3854H97.644V30.8962ZM103.439 24.5416C101.925 24.5416 101.06 23.2433 101.06 21.3529C101.06 19.4624 101.839 18.0275 103.374 18.0275C104.887 18.0275 105.601 19.3485 105.601 21.3529C105.601 23.3344 104.779 24.5416 103.439 24.5416Z" fill="#7A7A7A"/>
<path d="M114.907 27.4114C117.804 27.4114 119.945 26.0904 119.945 23.5394C119.945 20.5557 117.653 20.0318 115.707 19.6902C114.302 19.4169 113.048 19.303 113.048 18.483C113.048 17.7542 113.718 17.4125 114.583 17.4125C115.556 17.4125 116.226 17.7314 116.356 18.7791H119.599C119.426 16.4787 117.74 15.0438 114.604 15.0438C111.988 15.0438 109.826 16.3193 109.826 18.7791C109.826 21.5123 111.88 22.0589 113.804 22.4006C115.275 22.6739 116.615 22.7878 116.615 23.8355C116.615 24.5871 115.945 24.9971 114.886 24.9971C113.718 24.9971 112.983 24.4277 112.853 23.2661H109.523C109.631 25.8398 111.664 27.4114 114.907 27.4114Z" fill="#7A7A7A"/>
<path d="M124.731 27.3886C126.267 27.3886 127.24 26.7509 128.04 25.6121H128.104V27.047H131.477V15.3854H127.953V21.8995C127.953 23.2889 127.218 24.2455 126.007 24.2455C124.883 24.2455 124.342 23.5394 124.342 22.2639V15.3854H120.84V23.0383C120.84 25.6348 122.18 27.3886 124.731 27.3886Z" fill="#7A7A7A"/>
<path d="M133.011 27.047H136.535V20.5101C136.535 19.1208 137.184 18.1414 138.286 18.1414C139.346 18.1414 139.843 18.8702 139.843 20.1229V27.047H143.368V20.5101C143.368 19.1208 143.995 18.1414 145.119 18.1414C146.178 18.1414 146.676 18.8702 146.676 20.1229V27.047H150.2V19.4624C150.2 16.8431 148.946 15.0438 146.438 15.0438C145.011 15.0438 143.822 15.6815 142.957 17.0937H142.914C142.351 15.841 141.249 15.0438 139.8 15.0438C138.2 15.0438 137.141 15.841 136.449 17.0481H136.384V15.3854H133.011V27.047Z" fill="#7A7A7A"/>
<path fill-rule="evenodd" clip-rule="evenodd" d="M7.9052 3.41444C6.61631 4.36379 5.45081 5.48625 4.43905 6.74979C8.57357 6.34544 13.8263 7.00569 19.9247 10.2178C26.437 13.6477 31.681 13.7637 35.3305 13.0221C34.9993 11.9659 34.5824 10.9509 34.0886 9.98592C29.9109 10.4501 24.555 9.83569 18.3132 6.5482C14.3496 4.46055 10.8557 3.60058 7.9052 3.41444ZM31.6482 6.32676C28.349 2.44371 23.5545 0 18.218 0C16.6509 0 15.1304 0.210783 13.6808 0.606878C15.6441 1.17117 17.7297 1.99672 19.9247 3.15289C24.4946 5.55984 28.4401 6.33484 31.6482 6.32676ZM36.1108 16.7293C31.7018 17.6465 25.6134 17.4581 18.3132 13.6131C11.4883 10.0184 6.05627 10.0636 2.39272 10.9213C2.20362 10.9655 2.01897 11.012 1.83878 11.0604C1.35913 12.1593 0.976261 13.3148 0.701547 14.5147C0.994957 14.4322 1.29815 14.3537 1.61097 14.2804C6.0555 13.24 12.3352 13.2852 19.9247 17.2826C26.7497 20.8773 32.1817 20.832 35.8453 19.9744C35.9708 19.9451 36.0945 19.9147 36.2161 19.8834C36.2294 19.5842 36.2361 19.2831 36.2361 18.9803C36.2361 18.2187 36.1936 17.4676 36.1108 16.7293ZM35.6278 23.8889C31.2616 24.693 25.3505 24.3844 18.3132 20.6779C11.4883 17.0832 6.05627 17.1285 2.39272 17.9861C1.57952 18.1764 0.847977 18.4083 0.202652 18.653C0.200892 18.7619 0.200012 18.871 0.200012 18.9803C0.200012 29.4629 8.26696 37.9607 18.218 37.9607C26.5578 37.9607 33.5742 31.9922 35.6278 23.8889Z" fill="#7A7A7A"/>
</g>
<defs>
<clipPath id="clip0_150_134">
<rect width="150" height="37.9607" fill="white" transform="translate(0.200012)"/>
</clipPath>
</defs>
</svg>
