<svg width="151" height="38" viewBox="0 0 151 38" fill="none" xmlns="http://www.w3.org/2000/svg">
<g clip-path="url(#clip0_150_136)">
<path d="M46.1832 27.2357H56.7823V23.9336H49.9504V11.4954H46.1832V27.2357Z" fill="#7A7A7A"/>
<path d="M63.0619 25.0343C61.5508 25.0343 60.7633 23.6694 60.7633 21.622C60.7633 19.5747 61.5508 18.1878 63.0619 18.1878C64.573 18.1878 65.3817 19.5747 65.3817 21.622C65.3817 23.6694 64.573 25.0343 63.0619 25.0343ZM63.0831 27.5879C66.5949 27.5879 68.8935 25.0123 68.8935 21.622C68.8935 18.2318 66.5949 15.6561 63.0831 15.6561C59.5927 15.6561 57.2515 18.2318 57.2515 21.622C57.2515 25.0123 59.5927 27.5879 63.0831 27.5879Z" fill="#7A7A7A"/>
<path d="M74.972 31.1323C76.5895 31.1323 78.0155 30.758 78.9733 29.8774C79.8459 29.0629 80.4205 27.8301 80.4205 26.135V15.9643H77.1003V17.1751H77.0578C76.4193 16.2285 75.4402 15.6341 73.993 15.6341C71.29 15.6341 69.4171 17.9677 69.4171 21.2698C69.4171 24.7261 71.6944 26.6193 74.142 26.6193C75.4615 26.6193 76.2916 26.069 76.9301 25.3205H77.0152V26.4432C77.0152 27.8081 76.398 28.6006 74.9294 28.6006C73.7801 28.6006 73.2055 28.0943 73.0139 27.4999H69.6512C69.9917 29.8554 71.9711 31.1323 74.972 31.1323ZM74.9507 23.9556C73.6524 23.9556 72.8011 22.8548 72.8011 21.1597C72.8011 19.4426 73.6524 18.3419 74.9507 18.3419C76.398 18.3419 77.1642 19.6187 77.1642 21.1377C77.1642 22.7228 76.4618 23.9556 74.9507 23.9556Z" fill="#7A7A7A"/>
<path d="M87.2475 25.0343C85.7364 25.0343 84.9489 23.6694 84.9489 21.622C84.9489 19.5747 85.7364 18.1878 87.2475 18.1878C88.7586 18.1878 89.5671 19.5747 89.5671 21.622C89.5671 23.6694 88.7586 25.0343 87.2475 25.0343ZM87.2688 27.5879C90.7802 27.5879 93.0788 25.0123 93.0788 21.622C93.0788 18.2318 90.7802 15.6561 87.2688 15.6561C83.7783 15.6561 81.4372 18.2318 81.4372 21.622C81.4372 25.0123 83.7783 27.5879 87.2688 27.5879Z" fill="#7A7A7A"/>
<path d="M94.0924 27.2357H97.5616V15.9643H94.0924V27.2357ZM94.0924 14.4013H97.5616V11.4954H94.0924V14.4013Z" fill="#7A7A7A"/>
<path d="M99.0665 30.9562H102.536V26.069H102.578C103.259 27.0156 104.26 27.5879 105.664 27.5879C108.516 27.5879 110.411 25.2544 110.411 21.6C110.411 18.2098 108.644 15.6341 105.749 15.6341C104.26 15.6341 103.195 16.3166 102.451 17.3292H102.387V15.9643H99.0665V30.9562ZM104.77 24.8141C103.281 24.8141 102.429 23.5593 102.429 21.7321C102.429 19.9049 103.195 18.518 104.707 18.518C106.196 18.518 106.899 19.7948 106.899 21.7321C106.899 23.6474 106.09 24.8141 104.77 24.8141Z" fill="#7A7A7A"/>
<path d="M116.059 27.5879C118.911 27.5879 121.018 26.3111 121.018 23.8455C121.018 20.9616 118.762 20.4553 116.846 20.1251C115.463 19.8609 114.228 19.7508 114.228 18.9583C114.228 18.2538 114.888 17.9236 115.739 17.9236C116.697 17.9236 117.357 18.2318 117.485 19.2445H120.677C120.507 17.021 118.847 15.6341 115.761 15.6341C113.185 15.6341 111.057 16.8669 111.057 19.2445C111.057 21.8862 113.079 22.4146 114.973 22.7448C116.42 23.009 117.74 23.119 117.74 24.1317C117.74 24.8582 117.08 25.2544 116.037 25.2544C114.888 25.2544 114.164 24.7041 114.037 23.5813H110.759C110.865 26.069 112.866 27.5879 116.059 27.5879Z" fill="#7A7A7A"/>
<path d="M125.73 27.5659C127.241 27.5659 128.199 26.9495 128.986 25.8488H129.05V27.2357H132.37V15.9643H128.901V22.2605C128.901 23.6033 128.178 24.5279 126.986 24.5279C125.879 24.5279 125.347 23.8455 125.347 22.6127V15.9643H121.899V23.3612C121.899 25.8708 123.219 27.5659 125.73 27.5659Z" fill="#7A7A7A"/>
<path d="M133.88 27.2357H137.349V20.9176C137.349 19.5747 137.987 18.6281 139.073 18.6281C140.116 18.6281 140.605 19.3325 140.605 20.5433V27.2357H144.075V20.9176C144.075 19.5747 144.692 18.6281 145.798 18.6281C146.841 18.6281 147.331 19.3325 147.331 20.5433V27.2357H150.8V19.9049C150.8 17.3733 149.566 15.6341 147.097 15.6341C145.692 15.6341 144.521 16.2505 143.67 17.6154H143.628C143.074 16.4046 141.989 15.6341 140.563 15.6341C138.988 15.6341 137.945 16.4046 137.264 17.5714H137.2V15.9643H133.88V27.2357Z" fill="#7A7A7A"/>
<path fill-rule="evenodd" clip-rule="evenodd" d="M18.5361 37.3257C28.3316 37.3257 36.2722 29.1122 36.2722 18.9803C36.2722 8.84849 28.3316 0.63501 18.5361 0.63501C8.74076 0.63501 0.800049 8.84849 0.800049 18.9803C0.800049 29.1122 8.74076 37.3257 18.5361 37.3257ZM21.2737 14.8091C22.7855 13.2453 22.7855 10.7099 21.2737 9.14602C19.7618 7.58219 17.3105 7.58219 15.7986 9.14602C14.2868 10.7099 14.2868 13.2453 15.7986 14.8091L18.5361 17.6406L21.2737 14.8091ZM22.5688 21.8119C24.0808 23.3758 26.532 23.3758 28.0439 21.8119C29.5557 20.2481 29.5557 17.7127 28.0439 16.1488C26.532 14.585 24.0808 14.585 22.5688 16.1488L19.8314 18.9804L22.5688 21.8119ZM21.2737 28.8147C22.7855 27.2509 22.7855 24.7154 21.2737 23.1516L18.5361 20.3201L15.7986 23.1516C14.2868 24.7154 14.2868 27.2509 15.7986 28.8147C17.3105 30.3786 19.7618 30.3786 21.2737 28.8147ZM9.02838 21.8119C7.51652 20.2481 7.51652 17.7127 9.02838 16.1488C10.5403 14.585 12.9915 14.585 14.5035 16.1488L17.2409 18.9804L14.5035 21.8119C12.9915 23.3758 10.5403 23.3758 9.02838 21.8119Z" fill="#7A7A7A"/>
</g>
<defs>
<clipPath id="clip0_150_136">
<rect width="150" height="36.6906" fill="white" transform="translate(0.800049 0.63501)"/>
</clipPath>
</defs>
</svg>
