<svg width="147" height="38" viewBox="0 0 147 38" fill="none" xmlns="http://www.w3.org/2000/svg">
<g clip-path="url(#clip0_150_140)">
<path d="M1 28.2129L1 9.74757L10.0045 14.8769V23.1349L17.2082 27.2897L24.4118 23.1349V14.8769L33.4164 9.74757V28.2129L17.2082 37.4456L1 28.2129Z" fill="#7A7A7A"/>
<path fill-rule="evenodd" clip-rule="evenodd" d="M5.50228 12.3122L1 9.74757L17.2082 0.514893L33.4164 9.74757L28.9141 12.3122V25.9048L17.2082 32.8293L5.50227 25.9048L5.50228 12.3122ZM28.4264 12.5901L24.4118 14.8769L24.4118 14.8256L17.2082 10.6708L10.0045 14.8256V14.8769L5.99002 12.5901V25.6207L17.2082 32.2567L28.4264 25.6207V12.5901Z" fill="#7A7A7A"/>
<path d="M42.0464 26.7536V11.2427H44.899V24.0946H51.8146V26.7536H42.0464Z" fill="#7A7A7A"/>
<path d="M57.9734 27.0638C56.9073 27.0638 55.9493 26.8423 55.0992 26.399C54.2492 25.9559 53.5792 25.3133 53.0894 24.4713C52.5995 23.6293 52.3546 22.6174 52.3546 21.4356V21.081C52.3546 19.8992 52.5995 18.8873 53.0894 18.0453C53.5792 17.2033 54.2492 16.5607 55.0992 16.1176C55.9493 15.6743 56.9073 15.4528 57.9734 15.4528C59.0396 15.4528 59.9977 15.6743 60.8477 16.1176C61.6978 16.5607 62.3677 17.2033 62.8575 18.0453C63.3473 18.8873 63.5923 19.8992 63.5923 21.081V21.4356C63.5923 22.6174 63.3473 23.6293 62.8575 24.4713C62.3677 25.3133 61.6978 25.9559 60.8477 26.399C59.9977 26.8423 59.0396 27.0638 57.9734 27.0638ZM57.9734 24.5821C58.8091 24.5821 59.5007 24.3088 60.0481 23.7622C60.5956 23.2009 60.8693 22.4031 60.8693 21.3691V21.1475C60.8693 20.1135 60.5956 19.3231 60.0481 18.7766C59.5151 18.2153 58.8235 17.9346 57.9734 17.9346C57.1379 17.9346 56.4463 18.2153 55.8988 18.7766C55.3513 19.3231 55.0776 20.1135 55.0776 21.1475V21.3691C55.0776 22.4031 55.3513 23.2009 55.8988 23.7622C56.4463 24.3088 57.1379 24.5821 57.9734 24.5821Z" fill="#7A7A7A"/>
<path d="M64.6146 21.3026V20.9481C64.6146 19.7958 64.8379 18.8135 65.2846 18.001C65.7312 17.1737 66.3219 16.5459 67.0566 16.1176C67.8058 15.6743 68.6198 15.4528 69.4986 15.4528C70.4784 15.4528 71.2204 15.6301 71.7246 15.9846C72.2289 16.3391 72.5963 16.7085 72.8267 17.0926H73.2158V15.763H75.8955V28.7036C75.8955 29.4569 75.6794 30.0552 75.2472 30.4984C74.815 30.9563 74.2387 31.1853 73.5183 31.1853H66.3435V28.7479H72.5674C72.9708 28.7479 73.1726 28.5263 73.1726 28.0831V25.2246H72.7835C72.6394 25.461 72.4377 25.7047 72.1785 25.9559C71.9191 26.1922 71.5733 26.3917 71.1411 26.5542C70.7089 26.7167 70.1614 26.798 69.4986 26.798C68.6198 26.798 67.8058 26.5837 67.0566 26.1553C66.3219 25.7121 65.7312 25.0843 65.2846 24.2719C64.8379 23.4446 64.6146 22.4549 64.6146 21.3026ZM70.2767 24.3605C71.1123 24.3605 71.811 24.0872 72.3729 23.5406C72.9348 22.9941 73.2158 22.2259 73.2158 21.2362V21.0146C73.2158 20.01 72.9348 19.2419 72.3729 18.7101C71.8254 18.1636 71.1267 17.8902 70.2767 17.8902C69.441 17.8902 68.7423 18.1636 68.1805 18.7101C67.6185 19.2419 67.3376 20.01 67.3376 21.0146V21.2362C67.3376 22.2259 67.6185 22.9941 68.1805 23.5406C68.7423 24.0872 69.441 24.3605 70.2767 24.3605Z" fill="#7A7A7A"/>
<path d="M83.0422 27.0638C81.976 27.0638 81.0179 26.8423 80.1679 26.399C79.3178 25.9559 78.6479 25.3133 78.1581 24.4713C77.6683 23.6293 77.4234 22.6174 77.4234 21.4356V21.081C77.4234 19.8992 77.6683 18.8873 78.1581 18.0453C78.6479 17.2033 79.3178 16.5607 80.1679 16.1176C81.0179 15.6743 81.976 15.4528 83.0422 15.4528C84.1083 15.4528 85.0664 15.6743 85.9164 16.1176C86.7664 16.5607 87.4364 17.2033 87.9262 18.0453C88.4161 18.8873 88.661 19.8992 88.661 21.081V21.4356C88.661 22.6174 88.4161 23.6293 87.9262 24.4713C87.4364 25.3133 86.7664 25.9559 85.9164 26.399C85.0664 26.8423 84.1083 27.0638 83.0422 27.0638ZM83.0422 24.5821C83.8778 24.5821 84.5694 24.3088 85.1168 23.7622C85.6643 23.2009 85.9381 22.4031 85.9381 21.3691V21.1475C85.9381 20.1135 85.6643 19.3231 85.1168 18.7766C84.5837 18.2153 83.8922 17.9346 83.0422 17.9346C82.2065 17.9346 81.515 18.2153 80.9675 18.7766C80.4201 19.3231 80.1463 20.1135 80.1463 21.1475V21.3691C80.1463 22.4031 80.4201 23.2009 80.9675 23.7622C81.515 24.3088 82.2065 24.5821 83.0422 24.5821Z" fill="#7A7A7A"/>
<path d="M90.202 26.7536V15.763H92.9249V26.7536H90.202ZM91.5634 14.4778C91.0736 14.4778 90.6557 14.3154 90.31 13.9903C89.9786 13.6653 89.813 13.2369 89.813 12.7052C89.813 12.1734 89.9786 11.745 90.31 11.4199C90.6557 11.095 91.0736 10.9324 91.5634 10.9324C92.0677 10.9324 92.4855 11.095 92.8169 11.4199C93.1483 11.745 93.3139 12.1734 93.3139 12.7052C93.3139 13.2369 93.1483 13.6653 92.8169 13.9903C92.4855 14.3154 92.0677 14.4778 91.5634 14.4778Z" fill="#7A7A7A"/>
<path d="M94.9699 31.1853V15.763H97.6498V17.0926H98.039C98.2834 16.6641 98.6649 16.2874 99.1844 15.9624C99.703 15.6226 100.445 15.4528 101.41 15.4528C102.275 15.4528 103.074 15.6743 103.808 16.1176C104.544 16.5459 105.134 17.1811 105.581 18.0232C106.028 18.8652 106.251 19.8845 106.251 21.081V21.4356C106.251 22.6321 106.028 23.6514 105.581 24.4934C105.134 25.3355 104.544 25.9781 103.808 26.4212C103.074 26.8497 102.275 27.0638 101.41 27.0638C100.761 27.0638 100.214 26.9825 99.7673 26.8201C99.3349 26.6723 98.9822 26.4803 98.709 26.2439C98.4492 25.9928 98.2403 25.7417 98.0821 25.4906H97.6929V31.1853H94.9699ZM100.589 24.6264C101.439 24.6264 102.138 24.3531 102.685 23.8065C103.247 23.2452 103.528 22.4327 103.528 21.3691V21.1475C103.528 20.0839 103.247 19.2788 102.685 18.7322C102.123 18.1709 101.425 17.8902 100.589 17.8902C99.7529 17.8902 99.0541 18.1709 98.4924 18.7322C97.9307 19.2788 97.6498 20.0839 97.6498 21.1475V21.3691C97.6498 22.4327 97.9307 23.2452 98.4924 23.8065C99.0541 24.3531 99.7529 24.6264 100.589 24.6264Z" fill="#7A7A7A"/>
<path d="M112.23 27.0638C110.833 27.0638 109.687 26.7536 108.794 26.1332C107.901 25.5127 107.361 24.6264 107.173 23.4741L109.681 22.8094C109.781 23.3264 109.947 23.7327 110.177 24.0281C110.422 24.3236 110.718 24.5377 111.064 24.6707C111.423 24.7888 111.812 24.848 112.23 24.848C112.864 24.848 113.333 24.7371 113.636 24.5156C113.937 24.2792 114.089 23.9912 114.089 23.6514C114.089 23.3116 113.945 23.0532 113.657 22.8759C113.369 22.6838 112.908 22.5287 112.273 22.4106L111.669 22.2997C110.919 22.152 110.235 21.9526 109.615 21.7015C108.996 21.4356 108.499 21.0736 108.124 20.6157C107.75 20.1577 107.562 19.5668 107.562 18.843C107.562 17.7499 107.951 16.9153 108.73 16.3391C109.507 15.7482 110.531 15.4528 111.798 15.4528C112.994 15.4528 113.988 15.7261 114.78 16.2727C115.573 16.8192 116.091 17.5357 116.337 18.422L113.808 19.2197C113.693 18.6584 113.455 18.2595 113.095 18.0232C112.749 17.7868 112.317 17.6686 111.798 17.6686C111.279 17.6686 110.884 17.7646 110.609 17.9567C110.336 18.134 110.199 18.3851 110.199 18.7101C110.199 19.0646 110.343 19.3305 110.631 19.5078C110.919 19.6702 111.308 19.7958 111.798 19.8845L112.403 19.9953C113.21 20.143 113.937 20.3424 114.586 20.5935C115.249 20.8299 115.767 21.177 116.142 21.635C116.531 22.0782 116.726 22.6838 116.726 23.452C116.726 24.6043 116.315 25.498 115.493 26.1332C114.687 26.7536 113.599 27.0638 112.23 27.0638Z" fill="#7A7A7A"/>
<path d="M122.223 26.9308C121.388 26.9308 120.653 26.7388 120.019 26.3548C119.4 25.9559 118.917 25.4093 118.571 24.715C118.226 24.0208 118.053 23.223 118.053 22.3219V15.763H120.776V22.1003C120.776 22.9276 120.97 23.548 121.36 23.9616C121.762 24.3753 122.331 24.5821 123.067 24.5821C123.902 24.5821 124.551 24.3014 125.012 23.7401C125.473 23.1639 125.703 22.3663 125.703 21.347V15.763H128.426V26.7536H125.746V25.3133H125.358C125.184 25.6826 124.86 26.0445 124.385 26.399C123.909 26.7536 123.188 26.9308 122.223 26.9308Z" fill="#7A7A7A"/>
<path d="M130.484 26.7536V15.763H133.163V16.9596H133.552C133.739 16.5902 134.05 16.2727 134.481 16.0067C134.913 15.7261 135.483 15.5858 136.189 15.5858C136.952 15.5858 137.565 15.7409 138.026 16.0511C138.487 16.3465 138.84 16.738 139.085 17.2254H139.473C139.719 16.7528 140.065 16.3613 140.511 16.0511C140.958 15.7409 141.592 15.5858 142.413 15.5858C143.075 15.5858 143.674 15.7335 144.207 16.0289C144.754 16.3095 145.186 16.7453 145.503 17.3363C145.834 17.9123 146 18.6436 146 19.53V26.7536H143.277V19.7294C143.277 19.1237 143.126 18.6732 142.823 18.3777C142.52 18.0675 142.096 17.9123 141.548 17.9123C140.929 17.9123 140.446 18.1192 140.1 18.5328C139.769 18.9316 139.604 19.5078 139.604 20.2612V26.7536H136.88V19.7294C136.88 19.1237 136.729 18.6732 136.427 18.3777C136.124 18.0675 135.699 17.9123 135.151 17.9123C134.532 17.9123 134.05 18.1192 133.704 18.5328C133.372 18.9316 133.206 19.5078 133.206 20.2612V26.7536H130.484Z" fill="#7A7A7A"/>
</g>
<defs>
<clipPath id="clip0_150_140">
<rect width="147" height="36.9307" fill="white" transform="translate(0 0.514893)"/>
</clipPath>
</defs>
</svg>
