<svg width="151" height="28" viewBox="0 0 151 28" fill="none" xmlns="http://www.w3.org/2000/svg">
<g clip-path="url(#clip0_150_142)">
<path d="M10.7099 23.6691C7.82004 26.6072 2.92574 26.5955 1.55889 22.6797C1.29129 21.9131 1.07732 21.1248 0.919953 20.3205C0.277418 17.0363 0.607191 13.6322 1.86757 10.5386C3.12795 7.44508 5.26232 4.80095 8.00079 2.94064C10.7393 1.08034 13.9589 0.0874022 17.2524 0.0874023C20.5459 0.0874025 23.7655 1.08034 26.5039 2.94064C29.2424 4.80095 31.3768 7.44508 32.6372 10.5387C33.8976 13.6322 34.2273 17.0363 33.5848 20.3205C33.4274 21.1248 33.2135 21.9131 32.9458 22.6797C31.5789 26.5955 26.6847 26.6072 23.7948 23.6691L19.3339 19.1338C18.9077 18.7005 18.9517 17.9859 19.0693 17.385C19.1408 17.0196 19.1041 16.6409 18.9638 16.2968C18.8236 15.9526 18.5862 15.6584 18.2816 15.4515C17.9769 15.2446 17.6188 15.1341 17.2524 15.1341C16.886 15.1341 16.5278 15.2446 16.2232 15.4515C15.9185 15.6584 15.6811 15.9526 15.5408 16.2968C15.4006 16.6409 15.3639 17.0196 15.4355 17.385C15.553 17.9859 15.597 18.7005 15.1708 19.1338L10.7099 23.6691Z" fill="#7A7A7A"/>
<path d="M47.4527 19.6044H51.9288V22.2862H44.0356V8.02422H47.4527V19.6044Z" fill="#7A7A7A"/>
<path d="M58.0349 22.4487C56.9425 22.4487 55.9567 22.2117 55.0774 21.7377C54.2115 21.2636 53.5254 20.5864 53.0192 19.706C52.5263 18.8257 52.2798 17.7963 52.2798 16.6179C52.2798 15.4532 52.5329 14.4306 53.0391 13.5502C53.5454 12.6563 54.2381 11.9723 55.1173 11.4983C55.9966 11.0242 56.9825 10.7872 58.0748 10.7872C59.1672 10.7872 60.1531 11.0242 61.0323 11.4983C61.9116 11.9723 62.6043 12.6563 63.1105 13.5502C63.6167 14.4306 63.8699 15.4532 63.8699 16.6179C63.8699 17.7827 63.61 18.8121 63.0906 19.706C62.5843 20.5864 61.8849 21.2636 60.9923 21.7377C60.1131 22.2117 59.1273 22.4487 58.0349 22.4487ZM58.0349 19.4419C58.6876 19.4419 59.2405 19.1982 59.6935 18.7105C60.1598 18.2229 60.3929 17.5255 60.3929 16.6179C60.3929 15.7105 60.1663 15.013 59.7134 14.5254C59.2738 14.0378 58.7276 13.794 58.0748 13.794C57.4088 13.794 56.8559 14.0378 56.4162 14.5254C55.9766 14.9994 55.7568 15.6969 55.7568 16.6179C55.7568 17.5255 55.97 18.2229 56.3963 18.7105C56.8359 19.1982 57.3821 19.4419 58.0349 19.4419Z" fill="#7A7A7A"/>
<path d="M69.3195 10.7872C70.1055 10.7872 70.7917 10.9498 71.3778 11.2748C71.9772 11.5998 72.4369 12.0265 72.7567 12.5547V10.9498H76.1737V22.2658C76.1737 23.3087 75.9672 24.2501 75.5542 25.0897C75.1545 25.9431 74.5351 26.6203 73.6959 27.1214C72.8699 27.6226 71.8374 27.8731 70.5985 27.8731C68.9466 27.8731 67.6077 27.4736 66.5819 26.6745C65.5562 25.8889 64.9699 24.8189 64.8234 23.4645H68.2005C68.3071 23.8979 68.5602 24.2365 68.9599 24.4803C69.3595 24.7376 69.8525 24.8663 70.4386 24.8663C71.1447 24.8663 71.7041 24.6563 72.1172 24.2365C72.5435 23.8302 72.7567 23.1733 72.7567 22.2658V20.6609C72.4236 21.189 71.964 21.6225 71.3778 21.9611C70.7917 22.2862 70.1055 22.4487 69.3195 22.4487C68.4004 22.4487 67.5677 22.2117 66.8217 21.7377C66.0757 21.25 65.4828 20.566 65.0433 19.6857C64.617 18.7918 64.4038 17.7625 64.4038 16.5977C64.4038 15.4328 64.617 14.4103 65.0433 13.5299C65.4828 12.6495 66.0757 11.9723 66.8217 11.4983C67.5677 11.0242 68.4004 10.7872 69.3195 10.7872ZM72.7567 16.6179C72.7567 15.7511 72.5169 15.0671 72.0372 14.566C71.571 14.0649 70.9981 13.8143 70.3187 13.8143C69.6393 13.8143 69.0598 14.0649 68.5802 14.566C68.1139 15.0536 67.8808 15.7309 67.8808 16.5977C67.8808 17.4645 68.1139 18.1552 68.5802 18.6699C69.0598 19.171 69.6393 19.4216 70.3187 19.4216C70.9981 19.4216 71.571 19.171 72.0372 18.6699C72.5169 18.1687 72.7567 17.4848 72.7567 16.6179Z" fill="#7A7A7A"/>
<path d="M83.1219 22.4487C82.0296 22.4487 81.0437 22.2117 80.1645 21.7377C79.2986 21.2636 78.6125 20.5864 78.1062 19.706C77.6134 18.8257 77.3669 17.7963 77.3669 16.6179C77.3669 15.4532 77.62 14.4306 78.1263 13.5502C78.6325 12.6563 79.3252 11.9723 80.2044 11.4983C81.0837 11.0242 82.0695 10.7872 83.1619 10.7872C84.2543 10.7872 85.2402 11.0242 86.1193 11.4983C86.9986 11.9723 87.6913 12.6563 88.1976 13.5502C88.7038 14.4306 88.957 15.4532 88.957 16.6179C88.957 17.7827 88.6972 18.8121 88.1776 19.706C87.6714 20.5864 86.972 21.2636 86.0794 21.7377C85.2002 22.2117 84.2143 22.4487 83.1219 22.4487ZM83.1219 19.4419C83.7747 19.4419 84.3276 19.1982 84.7806 18.7105C85.2468 18.2229 85.48 17.5255 85.48 16.6179C85.48 15.7105 85.2534 15.013 84.8005 14.5254C84.3609 14.0378 83.8147 13.794 83.1619 13.794C82.4958 13.794 81.943 14.0378 81.5033 14.5254C81.0638 14.9994 80.8439 15.6969 80.8439 16.6179C80.8439 17.5255 81.0571 18.2229 81.4834 18.7105C81.923 19.1982 82.4692 19.4419 83.1219 19.4419Z" fill="#7A7A7A"/>
<path d="M91.8888 9.77141C91.2893 9.77141 90.7964 9.59533 90.4101 9.24319C90.037 8.8775 89.8506 8.43054 89.8506 7.90233C89.8506 7.36056 90.037 6.9136 90.4101 6.56145C90.7964 6.19576 91.2893 6.01292 91.8888 6.01292C92.475 6.01292 92.9546 6.19576 93.3276 6.56145C93.7139 6.9136 93.907 7.36056 93.907 7.90233C93.907 8.43054 93.7139 8.8775 93.3276 9.24319C92.9546 9.59533 92.475 9.77141 91.8888 9.77141ZM93.5873 10.9498V22.2862H90.1703V10.9498H93.5873Z" fill="#7A7A7A"/>
<path d="M98.881 12.5547C99.2139 12.0265 99.6735 11.5998 100.26 11.2748C100.846 10.9498 101.533 10.7872 102.318 10.7872C103.238 10.7872 104.07 11.0242 104.816 11.4983C105.562 11.9723 106.149 12.6495 106.575 13.5299C107.014 14.4103 107.235 15.4328 107.235 16.5977C107.235 17.7625 107.014 18.7918 106.575 19.6857C106.149 20.566 105.562 21.25 104.816 21.7377C104.07 22.2117 103.238 22.4487 102.318 22.4487C101.545 22.4487 100.86 22.2862 100.26 21.9611C99.6735 21.636 99.2139 21.2162 98.881 20.7015V27.6902H95.4641V10.9498H98.881V12.5547ZM103.757 16.5977C103.757 15.7309 103.517 15.0536 103.037 14.566C102.571 14.0649 101.992 13.8143 101.299 13.8143C100.62 13.8143 100.04 14.0649 99.5603 14.566C99.0948 15.0671 98.8616 15.7511 98.8616 16.6179C98.8616 17.4848 99.0948 18.1687 99.5603 18.6699C100.04 19.171 100.62 19.4216 101.299 19.4216C101.979 19.4216 102.558 19.171 103.037 18.6699C103.517 18.1552 103.757 17.4645 103.757 16.5977Z" fill="#7A7A7A"/>
<path d="M112.964 22.4487C111.991 22.4487 111.125 22.2794 110.365 21.9408C109.606 21.6022 109.006 21.1417 108.567 20.5593C108.128 19.9633 107.881 19.2997 107.828 18.5683H111.205C111.245 18.961 111.425 19.2793 111.744 19.5231C112.065 19.7669 112.457 19.8888 112.924 19.8888C113.35 19.8888 113.676 19.8076 113.902 19.645C114.142 19.469 114.262 19.2455 114.262 18.9746C114.262 18.6495 114.096 18.4125 113.763 18.2636C113.43 18.101 112.89 17.925 112.144 17.7353C111.345 17.5457 110.679 17.3493 110.145 17.1462C109.613 16.9295 109.154 16.5977 108.767 16.1507C108.38 15.6902 108.188 15.0739 108.188 14.302C108.188 13.6518 108.361 13.0627 108.707 12.5344C109.066 11.9927 109.586 11.566 110.265 11.2545C110.958 10.943 111.778 10.7872 112.724 10.7872C114.122 10.7872 115.221 11.1394 116.021 11.8436C116.834 12.548 117.3 13.4825 117.42 14.6473H114.262C114.209 14.2545 114.036 13.943 113.743 13.7127C113.463 13.4825 113.09 13.3674 112.624 13.3674C112.224 13.3674 111.917 13.4486 111.705 13.6112C111.492 13.7601 111.385 13.9701 111.385 14.241C111.385 14.566 111.552 14.8098 111.885 14.9724C112.231 15.1349 112.763 15.2975 113.483 15.4599C114.309 15.6766 114.981 15.8934 115.501 16.11C116.021 16.3132 116.474 16.6518 116.86 17.1259C117.259 17.5864 117.466 18.2094 117.48 18.995C117.48 19.6586 117.293 20.2545 116.92 20.7828C116.561 21.2975 116.034 21.7038 115.341 22.0017C114.662 22.2997 113.869 22.4487 112.964 22.4487Z" fill="#7A7A7A"/>
<path d="M129.981 10.9498V22.2862H126.564V20.7422C126.218 21.2433 125.745 21.6496 125.145 21.9611C124.559 22.2591 123.907 22.4081 123.187 22.4081C122.334 22.4081 121.581 22.2185 120.929 21.8392C120.276 21.4464 119.77 20.8843 119.411 20.153C119.051 19.4216 118.871 18.5616 118.871 17.5728V10.9498H122.267V17.1055C122.267 17.864 122.461 18.4532 122.847 18.8731C123.233 19.2929 123.753 19.5029 124.406 19.5029C125.072 19.5029 125.598 19.2929 125.984 18.8731C126.371 18.4532 126.564 17.864 126.564 17.1055V10.9498H129.981Z" fill="#7A7A7A"/>
<path d="M146.064 10.8279C147.449 10.8279 148.548 11.2545 149.361 12.1078C150.187 12.961 150.6 14.1461 150.6 15.6631V22.2862H147.203V16.1304C147.203 15.399 147.01 14.8369 146.624 14.4441C146.25 14.0378 145.731 13.8346 145.064 13.8346C144.399 13.8346 143.872 14.0378 143.486 14.4441C143.114 14.8369 142.927 15.399 142.927 16.1304V22.2862H139.529V16.1304C139.529 15.399 139.336 14.8369 138.95 14.4441C138.577 14.0378 138.057 13.8346 137.391 13.8346C136.725 13.8346 136.199 14.0378 135.813 14.4441C135.439 14.8369 135.254 15.399 135.254 16.1304V22.2862H131.836V10.9498H135.254V12.3719C135.6 11.8978 136.053 11.5253 136.612 11.2545C137.172 10.97 137.805 10.8279 138.51 10.8279C139.35 10.8279 140.096 11.0107 140.748 11.3764C141.414 11.7421 141.934 12.2635 142.307 12.9408C142.694 12.3177 143.22 11.8098 143.886 11.417C144.552 11.0242 145.278 10.8279 146.064 10.8279Z" fill="#7A7A7A"/>
</g>
<defs>
<clipPath id="clip0_150_142">
<rect width="150" height="27.7857" fill="white" transform="translate(0.599976 0.0874023)"/>
</clipPath>
</defs>
</svg>
