<svg width="150" height="38" viewBox="0 0 150 38" fill="none" xmlns="http://www.w3.org/2000/svg">
<g clip-path="url(#clip0_150_132)">
<path d="M43.7202 27.047H54.4878V23.6305H47.5472V10.7618H43.7202V27.047Z" fill="#7A7A7A"/>
<path d="M60.8672 24.7693C59.3321 24.7693 58.5321 23.3572 58.5321 21.239C58.5321 19.1208 59.3321 17.6859 60.8672 17.6859C62.4024 17.6859 63.224 19.1208 63.224 21.239C63.224 23.3572 62.4024 24.7693 60.8672 24.7693ZM60.8889 27.4114C64.4564 27.4114 66.7916 24.7465 66.7916 21.239C66.7916 17.7314 64.4564 15.0666 60.8889 15.0666C57.3429 15.0666 54.9645 17.7314 54.9645 21.239C54.9645 24.7465 57.3429 27.4114 60.8889 27.4114Z" fill="#7A7A7A"/>
<path d="M72.9667 31.0784C74.61 31.0784 76.0586 30.6912 77.0316 29.7801C77.9181 28.9374 78.5019 27.6619 78.5019 25.9081V15.3854H75.1289V16.6381H75.0857C74.437 15.6588 73.4424 15.0438 71.9721 15.0438C69.2262 15.0438 67.3235 17.4581 67.3235 20.8746C67.3235 24.4505 69.637 26.4092 72.1235 26.4092C73.464 26.4092 74.3073 25.8398 74.9559 25.0654H75.0424V26.227C75.0424 27.6392 74.4154 28.4591 72.9235 28.4591C71.7559 28.4591 71.1721 27.9352 70.9775 27.3203H67.5613C67.9073 29.7574 69.9181 31.0784 72.9667 31.0784ZM72.9451 23.6533C71.6262 23.6533 70.7613 22.5145 70.7613 20.7607C70.7613 18.9841 71.6262 17.8453 72.9451 17.8453C74.4154 17.8453 75.1938 19.1663 75.1938 20.7379C75.1938 22.3778 74.4803 23.6533 72.9451 23.6533Z" fill="#7A7A7A"/>
<path d="M85.4374 24.7693C83.9023 24.7693 83.1023 23.3572 83.1023 21.239C83.1023 19.1208 83.9023 17.6859 85.4374 17.6859C86.9725 17.6859 87.7942 19.1208 87.7942 21.239C87.7942 23.3572 86.9725 24.7693 85.4374 24.7693ZM85.459 27.4114C89.0266 27.4114 91.362 24.7465 91.362 21.239C91.362 17.7314 89.0266 15.0666 85.459 15.0666C81.9131 15.0666 79.5347 17.7314 79.5347 21.239C79.5347 24.7465 81.9131 27.4114 85.459 27.4114Z" fill="#7A7A7A"/>
<path d="M92.3908 27.047H95.9152V15.3854H92.3908V27.047ZM92.3908 13.7683H95.9152V10.7618H92.3908V13.7683Z" fill="#7A7A7A"/>
<path d="M97.444 30.8962H100.968V25.8398H101.012C101.703 26.8192 102.72 27.4114 104.147 27.4114C107.044 27.4114 108.968 24.9971 108.968 21.2162C108.968 17.7086 107.174 15.0438 104.233 15.0438C102.72 15.0438 101.639 15.7499 100.882 16.7976H100.817V15.3854H97.444V30.8962ZM103.239 24.5416C101.725 24.5416 100.86 23.2433 100.86 21.3529C100.86 19.4624 101.639 18.0275 103.174 18.0275C104.687 18.0275 105.401 19.3485 105.401 21.3529C105.401 23.3344 104.579 24.5416 103.239 24.5416Z" fill="#7A7A7A"/>
<path d="M114.707 27.4114C117.604 27.4114 119.745 26.0904 119.745 23.5394C119.745 20.5557 117.453 20.0318 115.507 19.6902C114.102 19.4169 112.848 19.303 112.848 18.483C112.848 17.7542 113.518 17.4125 114.383 17.4125C115.356 17.4125 116.026 17.7314 116.156 18.7791H119.399C119.226 16.4787 117.54 15.0438 114.404 15.0438C111.788 15.0438 109.626 16.3193 109.626 18.7791C109.626 21.5123 111.68 22.0589 113.604 22.4006C115.075 22.6739 116.415 22.7878 116.415 23.8355C116.415 24.5871 115.745 24.9971 114.685 24.9971C113.518 24.9971 112.783 24.4277 112.653 23.2661H109.323C109.431 25.8398 111.464 27.4114 114.707 27.4114Z" fill="#7A7A7A"/>
<path d="M124.531 27.3886C126.067 27.3886 127.04 26.7509 127.84 25.6121H127.904V27.047H131.277V15.3854H127.753V21.8995C127.753 23.2889 127.018 24.2455 125.807 24.2455C124.683 24.2455 124.142 23.5394 124.142 22.2639V15.3854H120.64V23.0383C120.64 25.6348 121.98 27.3886 124.531 27.3886Z" fill="#7A7A7A"/>
<path d="M132.811 27.047H136.335V20.5101C136.335 19.1208 136.984 18.1414 138.086 18.1414C139.146 18.1414 139.643 18.8702 139.643 20.1229V27.047H143.168V20.5101C143.168 19.1208 143.795 18.1414 144.919 18.1414C145.978 18.1414 146.476 18.8702 146.476 20.1229V27.047H150V19.4624C150 16.8431 148.746 15.0438 146.238 15.0438C144.811 15.0438 143.622 15.6815 142.757 17.0937H142.713C142.151 15.841 141.049 15.0438 139.6 15.0438C138 15.0438 136.941 15.841 136.249 17.0481H136.184V15.3854H132.811V27.047Z" fill="#7A7A7A"/>
<path fill-rule="evenodd" clip-rule="evenodd" d="M7.70518 3.41444C6.4163 4.36379 5.2508 5.48625 4.23904 6.74979C8.37355 6.34544 13.6263 7.00569 19.7247 10.2178C26.237 13.6477 31.4809 13.7637 35.1305 13.0221C34.7993 11.9659 34.3824 10.9509 33.8886 9.98591C29.7109 10.4501 24.355 9.83569 18.1132 6.5482C14.1496 4.46055 10.6557 3.60058 7.70518 3.41444ZM31.4482 6.32676C28.149 2.44371 23.3544 0 18.018 0C16.4509 0 14.9304 0.210783 13.4808 0.606878C15.4441 1.17117 17.5297 1.99672 19.7247 3.15289C24.2946 5.55984 28.24 6.33484 31.4482 6.32676ZM35.9108 16.7293C31.5018 17.6465 25.4134 17.4581 18.1132 13.6131C11.2883 10.0184 5.85626 10.0636 2.19271 10.9213C2.00361 10.9655 1.81896 11.012 1.63877 11.0604C1.15912 12.1593 0.776249 13.3148 0.501535 14.5147C0.794945 14.4322 1.09814 14.3537 1.41096 14.2804C5.85548 13.24 12.1352 13.2852 19.7247 17.2826C26.5497 20.8773 31.9817 20.832 35.6453 19.9744C35.7708 19.9451 35.8945 19.9147 36.0161 19.8834C36.0294 19.5842 36.0361 19.2831 36.0361 18.9803C36.0361 18.2187 35.9936 17.4676 35.9108 16.7293ZM35.4278 23.8889C31.0616 24.693 25.1505 24.3844 18.1132 20.6779C11.2883 17.0832 5.85626 17.1285 2.19271 17.9861C1.37951 18.1764 0.647965 18.4083 0.00263965 18.653C0.000880183 18.7619 0 18.871 0 18.9803C0 29.4629 8.06695 37.9607 18.018 37.9607C26.3578 37.9607 33.3742 31.9922 35.4278 23.8889Z" fill="#7A7A7A"/>
</g>
<defs>
<clipPath id="clip0_150_132">
<rect width="150" height="37.9607" fill="white"/>
</clipPath>
</defs>
</svg>
